<svg xmlns="http://www.w3.org/2000/svg" xmlns:xlink="http://www.w3.org/1999/xlink" width="500" zoomAndPan="magnify" viewBox="0 0 375 374.999991" height="500" preserveAspectRatio="xMidYMid meet" version="1.0"><defs><clipPath id="3ab70beeb7"><path d="M 15 27.910156 L 360 27.910156 L 360 347.410156 L 15 347.410156 Z M 15 27.910156 " clip-rule="nonzero"/></clipPath></defs><g clip-path="url(#3ab70beeb7)"><path fill="#0d8d50" d="M 35.488281 153.753906 L 35.488281 68.304688 C 35.488281 57.296875 44.539062 48.246094 55.546875 48.246094 L 118.417969 48.246094 C 139.875 48.246094 136.5625 27.957031 119.820312 27.957031 L 55.546875 27.957031 C 33.296875 27.957031 15.152344 46.101562 15.152344 68.351562 L 15.152344 243.027344 C 15.152344 265.273438 33.296875 283.417969 55.546875 283.417969 L 115.621094 283.417969 L 144.445312 326.746094 C 149.390625 334.210938 155.453125 345.683594 165.15625 347.039062 C 175.648438 348.484375 185.117188 337.335938 191.835938 330.621094 L 329.941406 196.570312 L 338.382812 242.417969 C 339.457031 248.296875 345.101562 252.214844 350.976562 251.140625 C 356.855469 250.070312 360.773438 244.425781 359.699219 238.546875 L 347.945312 174.648438 C 347.386719 169.5625 343.28125 165.460938 338.011719 165.039062 L 271.546875 159.628906 C 265.574219 159.164062 260.351562 163.640625 259.886719 169.609375 C 259.417969 175.582031 263.898438 180.804688 269.867188 181.269531 L 312.964844 184.769531 L 177.515625 316.253906 C 175.882812 317.886719 171.265625 322.738281 168.046875 325.441406 C 165.714844 322.363281 162.589844 317.28125 161.425781 315.507812 L 126.582031 263.128906 L 55.640625 263.128906 C 44.632812 263.128906 35.582031 254.078125 35.582031 243.070312 L 35.582031 153.847656 Z M 35.488281 153.753906 " fill-opacity="1" fill-rule="evenodd"/></g><path fill="#011f26" d="M 82.550781 165.878906 C 88.148438 165.878906 92.71875 170.449219 92.71875 176.046875 L 92.71875 212.429688 C 92.71875 218.023438 88.148438 222.597656 82.550781 222.597656 C 76.953125 222.597656 72.382812 218.023438 72.382812 212.429688 L 72.382812 176.046875 C 72.382812 170.449219 76.953125 165.878906 82.550781 165.878906 Z M 82.550781 165.878906 " fill-opacity="1" fill-rule="evenodd"/><path fill="#011f26" d="M 130.40625 127.960938 C 136.003906 127.960938 140.574219 132.53125 140.574219 138.128906 L 140.574219 212.429688 C 140.574219 218.023438 136.003906 222.597656 130.40625 222.597656 C 124.808594 222.597656 120.238281 218.023438 120.238281 212.429688 L 120.238281 138.128906 C 120.238281 132.53125 124.808594 127.960938 130.40625 127.960938 Z M 130.40625 127.960938 " fill-opacity="1" fill-rule="evenodd"/><path fill="#011f26" d="M 178.214844 87.707031 C 183.8125 87.707031 188.382812 92.277344 188.382812 97.875 L 188.382812 212.429688 C 188.382812 218.023438 183.8125 222.597656 178.214844 222.597656 C 172.617188 222.597656 168.046875 218.023438 168.046875 212.429688 L 168.046875 97.875 C 168.046875 92.277344 172.617188 87.707031 178.214844 87.707031 Z M 178.214844 87.707031 " fill-opacity="1" fill-rule="evenodd"/><path fill="#011f26" d="M 226.070312 59.347656 C 231.667969 59.347656 236.238281 63.917969 236.238281 69.515625 L 236.238281 212.429688 C 236.238281 218.023438 231.667969 222.597656 226.070312 222.597656 C 220.472656 222.597656 215.902344 218.023438 215.902344 212.429688 L 215.902344 69.515625 C 215.902344 63.917969 220.472656 59.347656 226.070312 59.347656 Z M 226.070312 59.347656 " fill-opacity="1" fill-rule="evenodd"/></svg>