<svg xmlns="http://www.w3.org/2000/svg" xmlns:xlink="http://www.w3.org/1999/xlink" width="500" zoomAndPan="magnify" viewBox="0 0 375 374.999991" height="500" preserveAspectRatio="xMidYMid meet" version="1.0"><defs><clipPath id="d585989944"><path d="M 82 88.613281 L 296 88.613281 L 296 286.683594 L 82 286.683594 Z M 82 88.613281 " clip-rule="nonzero"/></clipPath></defs><g clip-path="url(#d585989944)"><path fill="#eeba2b" d="M 95.03125 166.429688 L 95.03125 113.589844 C 95.03125 106.78125 100.628906 101.191406 107.4375 101.191406 L 146.316406 101.191406 C 159.582031 101.191406 157.535156 88.640625 147.179688 88.640625 L 107.4375 88.640625 C 93.675781 88.640625 82.460938 99.859375 82.460938 113.621094 L 82.460938 221.632812 C 82.460938 235.386719 93.675781 246.609375 107.4375 246.609375 L 144.585938 246.609375 L 162.40625 273.402344 C 165.464844 278.019531 169.21875 285.117188 175.21875 285.953125 C 181.707031 286.84375 187.5625 279.953125 191.710938 275.796875 L 277.113281 192.910156 L 282.335938 221.257812 C 282.996094 224.886719 286.484375 227.316406 290.121094 226.652344 C 293.757812 225.984375 296.179688 222.496094 295.515625 218.867188 L 288.25 179.351562 C 287.898438 176.207031 285.367188 173.667969 282.101562 173.410156 L 241.007812 170.058594 C 237.3125 169.773438 234.078125 172.539062 233.792969 176.234375 C 233.507812 179.929688 236.273438 183.15625 239.96875 183.449219 L 266.613281 185.605469 L 182.855469 266.914062 C 181.847656 267.921875 178.992188 270.921875 177.003906 272.597656 C 175.5625 270.695312 173.628906 267.550781 172.90625 266.453125 L 151.359375 234.0625 L 107.488281 234.0625 C 100.6875 234.0625 95.089844 228.464844 95.089844 221.660156 L 95.089844 166.488281 Z M 95.03125 166.429688 " fill-opacity="1" fill-rule="evenodd"/></g><path fill="#ffffff" d="M 124.132812 173.929688 C 127.59375 173.929688 130.417969 176.753906 130.417969 180.214844 L 130.417969 202.710938 C 130.417969 206.171875 127.59375 208.996094 124.132812 208.996094 C 120.675781 208.996094 117.851562 206.171875 117.851562 202.710938 L 117.851562 180.214844 C 117.851562 176.753906 120.675781 173.929688 124.132812 173.929688 Z M 124.132812 173.929688 " fill-opacity="1" fill-rule="evenodd"/><path fill="#ffffff" d="M 153.730469 150.480469 C 157.191406 150.480469 160.015625 153.304688 160.015625 156.765625 L 160.015625 202.710938 C 160.015625 206.171875 157.191406 208.996094 153.730469 208.996094 C 150.269531 208.996094 147.4375 206.171875 147.4375 202.710938 L 147.4375 156.765625 C 147.4375 153.304688 150.269531 150.480469 153.730469 150.480469 Z M 153.730469 150.480469 " fill-opacity="1" fill-rule="evenodd"/><path fill="#ffffff" d="M 183.289062 125.589844 C 186.75 125.589844 189.578125 128.414062 189.578125 131.875 L 189.578125 202.710938 C 189.578125 206.171875 186.75 208.996094 183.289062 208.996094 C 179.828125 208.996094 177.003906 206.171875 177.003906 202.710938 L 177.003906 131.875 C 177.003906 128.414062 179.828125 125.589844 183.289062 125.589844 Z M 183.289062 125.589844 " fill-opacity="1" fill-rule="evenodd"/><path fill="#ffffff" d="M 212.882812 108.054688 C 216.34375 108.054688 219.167969 110.878906 219.167969 114.335938 L 219.167969 202.710938 C 219.167969 206.171875 216.34375 208.996094 212.882812 208.996094 C 209.421875 208.996094 206.597656 206.171875 206.597656 202.710938 L 206.597656 114.335938 C 206.597656 110.878906 209.421875 108.054688 212.882812 108.054688 Z M 212.882812 108.054688 " fill-opacity="1" fill-rule="evenodd"/></svg>