<svg xmlns="http://www.w3.org/2000/svg" xmlns:xlink="http://www.w3.org/1999/xlink" width="500" zoomAndPan="magnify" viewBox="0 0 375 374.999991" height="500" preserveAspectRatio="xMidYMid meet" version="1.0"><defs><g/><clipPath id="a3b5d2c699"><path d="M 112.132812 264.730469 L 134.761719 264.730469 L 134.761719 273.808594 L 112.132812 273.808594 Z M 112.132812 264.730469 " clip-rule="nonzero"/></clipPath><clipPath id="4e6584219d"><path d="M 32.402344 34.847656 L 337.652344 34.847656 L 337.652344 340.097656 L 32.402344 340.097656 Z M 32.402344 34.847656 " clip-rule="nonzero"/></clipPath></defs><rect x="-37.5" width="450" fill="#ffffff" y="-37.499999" height="449.999989" fill-opacity="1"/><rect x="-37.5" width="450" fill="#000000" y="-37.499999" height="449.999989" fill-opacity="1"/><rect x="-37.5" width="450" fill="#ffffff" y="-37.499999" height="449.999989" fill-opacity="1"/><g fill="#ffffff" fill-opacity="1"><g transform="translate(111.649026, 251.608738)"><g><path d="M 14.28125 0.84375 C 11.5625 0.84375 9.195312 0.3125 7.1875 -0.75 C 5.1875 -1.8125 3.640625 -3.316406 2.546875 -5.265625 C 1.460938 -7.210938 0.921875 -9.515625 0.921875 -12.171875 C 0.921875 -14.828125 1.441406 -17.128906 2.484375 -19.078125 C 3.523438 -21.023438 5.003906 -22.53125 6.921875 -23.59375 C 8.835938 -24.65625 11.085938 -25.1875 13.671875 -25.1875 C 15.796875 -25.1875 17.691406 -24.8125 19.359375 -24.0625 C 21.023438 -23.320312 22.375 -22.257812 23.40625 -20.875 C 24.4375 -19.488281 25.078125 -17.847656 25.328125 -15.953125 L 18.59375 -14.28125 C 18.320312 -15.6875 17.769531 -16.804688 16.9375 -17.640625 C 16.113281 -18.484375 15.035156 -18.90625 13.703125 -18.90625 C 12.066406 -18.90625 10.765625 -18.296875 9.796875 -17.078125 C 8.835938 -15.867188 8.359375 -14.234375 8.359375 -12.171875 C 8.359375 -10.109375 8.898438 -8.472656 9.984375 -7.265625 C 11.078125 -6.066406 12.539062 -5.46875 14.375 -5.46875 C 15.945312 -5.46875 17.269531 -5.960938 18.34375 -6.953125 C 19.414062 -7.941406 20.078125 -9.257812 20.328125 -10.90625 L 27.234375 -10.09375 C 27.023438 -7.875 26.351562 -5.941406 25.21875 -4.296875 C 24.09375 -2.660156 22.59375 -1.394531 20.71875 -0.5 C 18.851562 0.394531 16.707031 0.84375 14.28125 0.84375 Z M 14.28125 0.84375 "/></g></g></g><g fill="#ffffff" fill-opacity="1"><g transform="translate(139.457835, 251.608738)"><g><path d="M 20.265625 0.546875 C 18.953125 0.546875 17.816406 0.175781 16.859375 -0.5625 C 15.910156 -1.300781 15.242188 -2.316406 14.859375 -3.609375 L 14.046875 -6.359375 C 13.859375 -6.992188 13.570312 -7.53125 13.1875 -7.96875 C 12.800781 -8.414062 12.28125 -8.640625 11.625 -8.640625 L 9.21875 -8.640625 L 9.21875 0 L 1.765625 0 L 1.765625 -24.34375 L 14.515625 -24.34375 C 17.597656 -24.34375 19.988281 -23.660156 21.6875 -22.296875 C 23.382812 -20.941406 24.234375 -19.019531 24.234375 -16.53125 C 24.234375 -14.957031 23.769531 -13.585938 22.84375 -12.421875 C 21.914062 -11.253906 20.613281 -10.410156 18.9375 -9.890625 L 18.9375 -9.859375 C 19.550781 -9.628906 20.019531 -9.300781 20.34375 -8.875 C 20.675781 -8.445312 20.941406 -7.890625 21.140625 -7.203125 L 21.765625 -5.140625 C 21.878906 -4.796875 22.035156 -4.503906 22.234375 -4.265625 C 22.441406 -4.023438 22.710938 -3.90625 23.046875 -3.90625 C 23.316406 -3.90625 23.582031 -3.972656 23.84375 -4.109375 C 24.101562 -4.242188 24.328125 -4.394531 24.515625 -4.5625 L 25.671875 -1.21875 C 25.035156 -0.675781 24.238281 -0.25 23.28125 0.0625 C 22.332031 0.382812 21.328125 0.546875 20.265625 0.546875 Z M 9.21875 -13.359375 L 13.390625 -13.359375 C 14.460938 -13.359375 15.300781 -13.613281 15.90625 -14.125 C 16.519531 -14.632812 16.828125 -15.332031 16.828125 -16.21875 C 16.828125 -17.125 16.519531 -17.828125 15.90625 -18.328125 C 15.300781 -18.828125 14.460938 -19.078125 13.390625 -19.078125 L 9.21875 -19.078125 Z M 9.21875 -13.359375 "/></g></g></g><g fill="#ffffff" fill-opacity="1"><g transform="translate(165.396863, 251.608738)"><g><path d="M 8.46875 0 L 8.46875 -8.328125 L 0.0625 -24.34375 L 7.8125 -24.34375 L 12.203125 -14.6875 L 12.234375 -14.6875 L 16.25 -24.34375 L 24.109375 -24.34375 L 15.90625 -8.328125 L 15.90625 0 Z M 8.46875 0 "/></g></g></g><g fill="#ffffff" fill-opacity="1"><g transform="translate(189.602089, 251.608738)"><g><path d="M 1.765625 0 L 1.765625 -24.34375 L 14.046875 -24.34375 C 16.035156 -24.34375 17.757812 -23.988281 19.21875 -23.28125 C 20.6875 -22.582031 21.820312 -21.601562 22.625 -20.34375 C 23.425781 -19.09375 23.828125 -17.601562 23.828125 -15.875 C 23.828125 -14.175781 23.421875 -12.691406 22.609375 -11.421875 C 21.796875 -10.148438 20.648438 -9.160156 19.171875 -8.453125 C 17.703125 -7.753906 15.96875 -7.40625 13.96875 -7.40625 L 9.1875 -7.40625 L 9.140625 0 Z M 9.1875 -12.71875 L 12.6875 -12.71875 C 13.84375 -12.71875 14.75 -13 15.40625 -13.5625 C 16.0625 -14.132812 16.390625 -14.90625 16.390625 -15.875 C 16.390625 -16.875 16.0625 -17.65625 15.40625 -18.21875 C 14.75 -18.789062 13.84375 -19.078125 12.6875 -19.078125 L 9.140625 -19.078125 Z M 9.1875 -12.71875 "/></g></g></g><g fill="#ffffff" fill-opacity="1"><g transform="translate(214.113283, 251.608738)"><g><path d="M 7.40625 0 L 7.40625 -18.046875 L 0.609375 -18.046875 L 0.609375 -24.34375 L 21.6875 -24.34375 L 21.6875 -18.046875 L 14.859375 -18.046875 L 14.859375 0 Z M 7.40625 0 "/></g></g></g><g fill="#ffffff" fill-opacity="1"><g transform="translate(236.380726, 251.608738)"><g><path d="M 14.625 0.84375 C 11.875 0.84375 9.46875 0.304688 7.40625 -0.765625 C 5.34375 -1.835938 3.742188 -3.351562 2.609375 -5.3125 C 1.484375 -7.28125 0.921875 -9.566406 0.921875 -12.171875 C 0.921875 -14.796875 1.484375 -17.082031 2.609375 -19.03125 C 3.742188 -20.988281 5.34375 -22.503906 7.40625 -23.578125 C 9.46875 -24.648438 11.875 -25.1875 14.625 -25.1875 C 17.382812 -25.1875 19.789062 -24.648438 21.84375 -23.578125 C 23.894531 -22.503906 25.488281 -20.988281 26.625 -19.03125 C 27.757812 -17.082031 28.328125 -14.796875 28.328125 -12.171875 C 28.328125 -9.566406 27.757812 -7.28125 26.625 -5.3125 C 25.488281 -3.351562 23.894531 -1.835938 21.84375 -0.765625 C 19.789062 0.304688 17.382812 0.84375 14.625 0.84375 Z M 14.625 -5.46875 C 16.519531 -5.46875 18.035156 -6.078125 19.171875 -7.296875 C 20.304688 -8.523438 20.875 -10.148438 20.875 -12.171875 C 20.875 -14.210938 20.304688 -15.84375 19.171875 -17.0625 C 18.035156 -18.289062 16.519531 -18.90625 14.625 -18.90625 C 12.71875 -18.90625 11.195312 -18.289062 10.0625 -17.0625 C 8.925781 -15.84375 8.359375 -14.210938 8.359375 -12.171875 C 8.359375 -10.148438 8.925781 -8.523438 10.0625 -7.296875 C 11.195312 -6.078125 12.71875 -5.46875 14.625 -5.46875 Z M 14.625 -5.46875 "/></g></g></g><g fill="#ffffff" fill-opacity="1"><g transform="translate(137.207618, 280.108736)"><g><path d="M 20.265625 0.546875 C 18.953125 0.546875 17.816406 0.175781 16.859375 -0.5625 C 15.910156 -1.300781 15.242188 -2.316406 14.859375 -3.609375 L 14.046875 -6.359375 C 13.859375 -6.992188 13.570312 -7.53125 13.1875 -7.96875 C 12.800781 -8.414062 12.28125 -8.640625 11.625 -8.640625 L 9.21875 -8.640625 L 9.21875 0 L 1.765625 0 L 1.765625 -24.34375 L 14.515625 -24.34375 C 17.597656 -24.34375 19.988281 -23.660156 21.6875 -22.296875 C 23.382812 -20.941406 24.234375 -19.019531 24.234375 -16.53125 C 24.234375 -14.957031 23.769531 -13.585938 22.84375 -12.421875 C 21.914062 -11.253906 20.613281 -10.410156 18.9375 -9.890625 L 18.9375 -9.859375 C 19.550781 -9.628906 20.019531 -9.300781 20.34375 -8.875 C 20.675781 -8.445312 20.941406 -7.890625 21.140625 -7.203125 L 21.765625 -5.140625 C 21.878906 -4.796875 22.035156 -4.503906 22.234375 -4.265625 C 22.441406 -4.023438 22.710938 -3.90625 23.046875 -3.90625 C 23.316406 -3.90625 23.582031 -3.972656 23.84375 -4.109375 C 24.101562 -4.242188 24.328125 -4.394531 24.515625 -4.5625 L 25.671875 -1.21875 C 25.035156 -0.675781 24.238281 -0.25 23.28125 0.0625 C 22.332031 0.382812 21.328125 0.546875 20.265625 0.546875 Z M 9.21875 -13.359375 L 13.390625 -13.359375 C 14.460938 -13.359375 15.300781 -13.613281 15.90625 -14.125 C 16.519531 -14.632812 16.828125 -15.332031 16.828125 -16.21875 C 16.828125 -17.125 16.519531 -17.828125 15.90625 -18.328125 C 15.300781 -18.828125 14.460938 -19.078125 13.390625 -19.078125 L 9.21875 -19.078125 Z M 9.21875 -13.359375 "/></g></g></g><g fill="#ffffff" fill-opacity="1"><g transform="translate(163.146646, 280.108736)"><g><path d="M 1.765625 0 L 1.765625 -24.34375 L 9.21875 -24.34375 L 9.21875 0 Z M 1.765625 0 "/></g></g></g><g fill="#ffffff" fill-opacity="1"><g transform="translate(174.127389, 280.108736)"><g><path d="M 12.140625 0.84375 C 10.054688 0.84375 8.191406 0.554688 6.546875 -0.015625 C 4.898438 -0.597656 3.570312 -1.484375 2.5625 -2.671875 C 1.550781 -3.859375 0.957031 -5.347656 0.78125 -7.140625 L 7.453125 -8.390625 C 7.628906 -7.148438 8.175781 -6.175781 9.09375 -5.46875 C 10.007812 -4.769531 11.148438 -4.421875 12.515625 -4.421875 C 13.710938 -4.421875 14.664062 -4.644531 15.375 -5.09375 C 16.09375 -5.550781 16.453125 -6.144531 16.453125 -6.875 C 16.453125 -7.457031 16.175781 -7.929688 15.625 -8.296875 C 15.070312 -8.660156 14.179688 -8.957031 12.953125 -9.1875 L 9.828125 -9.6875 C 6.878906 -10.207031 4.722656 -11.054688 3.359375 -12.234375 C 2.003906 -13.421875 1.328125 -15.046875 1.328125 -17.109375 C 1.328125 -18.785156 1.785156 -20.226562 2.703125 -21.4375 C 3.617188 -22.644531 4.867188 -23.570312 6.453125 -24.21875 C 8.046875 -24.863281 9.835938 -25.1875 11.828125 -25.1875 C 13.617188 -25.1875 15.242188 -24.894531 16.703125 -24.3125 C 18.171875 -23.738281 19.375 -22.925781 20.3125 -21.875 C 21.25 -20.820312 21.8125 -19.570312 22 -18.125 L 15.46875 -16.6875 C 15.332031 -17.6875 14.910156 -18.472656 14.203125 -19.046875 C 13.503906 -19.628906 12.65625 -19.921875 11.65625 -19.921875 C 10.726562 -19.921875 9.976562 -19.710938 9.40625 -19.296875 C 8.84375 -18.878906 8.5625 -18.34375 8.5625 -17.6875 C 8.5625 -17.113281 8.820312 -16.65625 9.34375 -16.3125 C 9.863281 -15.976562 10.691406 -15.71875 11.828125 -15.53125 L 15 -15.03125 C 17.988281 -14.59375 20.171875 -13.773438 21.546875 -12.578125 C 22.929688 -11.378906 23.625 -9.703125 23.625 -7.546875 C 23.625 -5.734375 23.128906 -4.203125 22.140625 -2.953125 C 21.160156 -1.710938 19.804688 -0.769531 18.078125 -0.125 C 16.359375 0.519531 14.378906 0.84375 12.140625 0.84375 Z M 12.140625 0.84375 "/></g></g></g><g fill="#ffffff" fill-opacity="1"><g transform="translate(198.162635, 280.108736)"><g><path d="M 1.765625 0 L 1.765625 -24.34375 L 9.21875 -24.34375 L 9.21875 0 Z M 1.765625 0 "/></g></g></g><g fill="#ffffff" fill-opacity="1"><g transform="translate(209.143378, 280.108736)"><g><path d="M 1.765625 0 L 1.765625 -24.34375 L 10.203125 -24.34375 L 18.765625 -8.734375 L 18.84375 -8.734375 L 18.84375 -24.34375 L 25.734375 -24.34375 L 25.734375 0 L 17.3125 0 L 8.734375 -15.578125 L 8.671875 -15.578125 L 8.671875 0 Z M 1.765625 0 "/></g></g></g><g fill="#ffffff" fill-opacity="1"><g transform="translate(236.646229, 280.108736)"><g><path d="M 12.578125 0.71875 C 10.265625 0.71875 8.226562 0.179688 6.46875 -0.890625 C 4.71875 -1.972656 3.351562 -3.476562 2.375 -5.40625 C 1.40625 -7.332031 0.921875 -9.585938 0.921875 -12.171875 C 0.921875 -14.773438 1.460938 -17.050781 2.546875 -19 C 3.640625 -20.957031 5.164062 -22.476562 7.125 -23.5625 C 9.082031 -24.644531 11.351562 -25.1875 13.9375 -25.1875 C 15.820312 -25.1875 17.546875 -24.84375 19.109375 -24.15625 C 20.671875 -23.46875 21.976562 -22.5 23.03125 -21.25 C 24.082031 -20 24.789062 -18.535156 25.15625 -16.859375 L 18.359375 -15.640625 C 18.066406 -16.617188 17.503906 -17.40625 16.671875 -18 C 15.847656 -18.601562 14.90625 -18.90625 13.84375 -18.90625 C 12.207031 -18.90625 10.882812 -18.285156 9.875 -17.046875 C 8.863281 -15.816406 8.359375 -14.191406 8.359375 -12.171875 C 8.359375 -10.785156 8.628906 -9.570312 9.171875 -8.53125 C 9.722656 -7.488281 10.484375 -6.671875 11.453125 -6.078125 C 12.429688 -5.492188 13.566406 -5.203125 14.859375 -5.203125 C 16.398438 -5.203125 17.691406 -5.628906 18.734375 -6.484375 C 19.773438 -7.347656 20.34375 -8.453125 20.4375 -9.796875 L 11.59375 -9.796875 L 11.59375 -14.046875 L 27.609375 -14.046875 L 27.609375 0 L 22.375 0 L 21.625 -4.5625 L 21.59375 -4.5625 C 20.957031 -2.90625 19.820312 -1.609375 18.1875 -0.671875 C 16.550781 0.253906 14.679688 0.71875 12.578125 0.71875 Z M 12.578125 0.71875 "/></g></g></g><g clip-path="url(#a3b5d2c699)"><path fill="#ffffff" d="M 112.132812 264.730469 L 134.765625 264.730469 L 134.765625 273.808594 L 112.132812 273.808594 Z M 112.132812 264.730469 " fill-opacity="1" fill-rule="nonzero"/></g><path fill="#000000" d="M 220.199219 227.324219 C 217.308594 235.632812 210.597656 239.757812 202.378906 240.621094 C 192.527344 241.65625 182.5625 241.621094 172.652344 242.082031 C 170.53125 242.183594 170.164062 241.042969 170.179688 239.246094 C 170.242188 233.054688 170.203125 226.859375 170.203125 220.664062 C 170.273438 220.664062 170.34375 220.664062 170.410156 220.664062 C 170.410156 214.007812 170.457031 207.351562 170.386719 200.699219 C 170.363281 198.527344 171.429688 197.71875 173.378906 197.828125 C 183.347656 198.386719 193.417969 198.28125 203.257812 199.738281 C 217.710938 201.878906 224.839844 213.992188 220.199219 227.324219 Z M 170.195312 134.324219 C 170.480469 134.113281 170.65625 133.863281 170.839844 133.855469 C 180.410156 133.53125 190.007812 133 199.398438 135.527344 C 208.210938 137.898438 212.75 143.597656 212.769531 152.050781 C 212.789062 161.414062 208.449219 167.191406 199.308594 169.582031 C 189.800781 172.066406 180.105469 171.175781 170.195312 171.253906 C 170.195312 158.679688 170.195312 146.464844 170.195312 134.324219 Z M 229.964844 186.242188 C 227.789062 185.191406 225.558594 184.234375 222.972656 183.066406 C 223.988281 182.457031 224.566406 182.085938 225.164062 181.75 C 245.753906 170.230469 250.167969 143.929688 234.523438 126.289062 C 227.085938 117.90625 217.773438 113.332031 206.679688 112.515625 C 203.425781 112.277344 202.28125 111.199219 202.410156 107.859375 C 202.667969 101.355469 202.488281 94.832031 202.488281 88.183594 C 196.773438 88.183594 191.484375 88.183594 185.78125 88.183594 C 185.78125 95.859375 185.78125 103.273438 185.78125 110.957031 C 182.707031 110.957031 180.039062 110.980469 177.375 110.957031 C 170.277344 110.890625 171.15625 111.785156 171.105469 104.511719 C 171.066406 99.066406 171.097656 93.628906 171.097656 88.179688 C 165.316406 88.179688 160.121094 88.179688 154.625 88.179688 C 154.625 94.515625 154.449219 100.589844 154.695312 106.652344 C 154.828125 109.941406 153.984375 111.121094 150.476562 111.035156 C 140.660156 110.796875 130.832031 110.945312 121.011719 110.960938 C 119.769531 110.964844 118.53125 111.074219 117.308594 111.132812 C 117.308594 118.78125 117.308594 126.066406 117.308594 133.617188 C 122.625 133.617188 127.644531 133.589844 132.660156 133.625 C 137.628906 133.65625 138.875 134.910156 138.882812 139.859375 C 138.910156 155.867188 138.9375 171.871094 138.9375 187.878906 C 138.9375 203.546875 138.894531 219.214844 138.882812 234.882812 C 138.875 241.0625 137.953125 242.019531 131.820312 242.046875 C 126.964844 242.066406 122.113281 242.046875 117.320312 242.046875 C 117.320312 250.003906 117.320312 257.292969 117.320312 264.84375 C 128.378906 264.84375 139.128906 264.84375 149.878906 264.84375 C 154.59375 264.847656 154.59375 264.851562 154.597656 269.625 C 154.601562 275.3125 154.597656 280.996094 154.597656 286.808594 C 160.34375 286.808594 165.53125 286.808594 171.121094 286.808594 C 171.121094 285.320312 171.121094 284.0625 171.121094 282.800781 C 171.117188 277.890625 171.207031 272.976562 171.070312 268.070312 C 171.003906 265.65625 171.808594 264.664062 174.285156 264.8125 C 176.851562 264.96875 179.449219 265.027344 181.996094 264.78125 C 185.019531 264.484375 186.136719 265.398438 186 268.609375 C 185.746094 274.636719 185.925781 280.683594 185.925781 286.742188 C 191.6875 286.742188 196.972656 286.742188 202.667969 286.742188 C 202.667969 279.019531 202.667969 271.59375 202.667969 264.0625 C 212.777344 263.011719 222.25 260.929688 230.925781 256.316406 C 245.011719 248.824219 252.90625 237.050781 252.789062 221.003906 C 252.671875 204.816406 244.527344 193.257812 229.964844 186.242188 " fill-opacity="1" fill-rule="nonzero"/><g clip-path="url(#4e6584219d)"><path fill="#000000" d="M 185.050781 315.664062 C 114.378906 315.664062 56.882812 258.167969 56.882812 187.496094 C 56.882812 116.824219 114.378906 59.328125 185.050781 59.328125 C 255.71875 59.328125 313.214844 116.824219 313.214844 187.496094 C 313.214844 258.167969 255.71875 315.664062 185.050781 315.664062 Z M 292.988281 79.554688 C 264.15625 50.726562 225.824219 34.847656 185.050781 34.847656 C 144.273438 34.847656 105.941406 50.726562 77.109375 79.554688 C 48.277344 108.386719 32.402344 146.722656 32.402344 187.496094 C 32.402344 228.269531 48.277344 266.601562 77.109375 295.433594 C 105.941406 324.265625 144.273438 340.144531 185.050781 340.144531 C 225.824219 340.144531 264.15625 324.265625 292.988281 295.433594 C 321.820312 266.601562 337.699219 228.269531 337.699219 187.496094 C 337.699219 146.722656 321.820312 108.386719 292.988281 79.554688 " fill-opacity="1" fill-rule="nonzero"/></g></svg>