<svg xmlns="http://www.w3.org/2000/svg" xmlns:xlink="http://www.w3.org/1999/xlink" width="500" zoomAndPan="magnify" viewBox="0 0 375 374.999991" height="500" preserveAspectRatio="xMidYMid meet" version="1.0"><defs><g/><clipPath id="37185e9f7c"><path d="M 130.160156 100.707031 L 244.910156 100.707031 L 244.910156 206.457031 L 130.160156 206.457031 Z M 130.160156 100.707031 " clip-rule="nonzero"/></clipPath></defs><g clip-path="url(#37185e9f7c)"><path fill="#0d8d50" d="M 137.3125 142.253906 L 137.3125 114.042969 C 137.3125 110.40625 140.300781 107.421875 143.9375 107.421875 L 164.695312 107.421875 C 171.777344 107.421875 170.683594 100.722656 165.15625 100.722656 L 143.9375 100.722656 C 136.589844 100.722656 130.601562 106.710938 130.601562 114.058594 L 130.601562 171.726562 C 130.601562 179.070312 136.589844 185.0625 143.9375 185.0625 L 163.769531 185.0625 L 173.285156 199.367188 C 174.917969 201.832031 176.921875 205.621094 180.125 206.066406 C 183.589844 206.542969 186.714844 202.863281 188.929688 200.644531 L 234.527344 156.390625 L 237.316406 171.527344 C 237.667969 173.464844 239.53125 174.761719 241.472656 174.40625 C 243.414062 174.050781 244.707031 172.1875 244.351562 170.25 L 240.472656 149.152344 C 240.285156 147.472656 238.933594 146.117188 237.191406 145.980469 L 215.25 144.191406 C 213.277344 144.039062 211.550781 145.515625 211.398438 147.488281 C 211.246094 149.460938 212.722656 151.183594 214.695312 151.339844 L 228.921875 152.492188 L 184.203125 195.902344 C 183.664062 196.441406 182.140625 198.042969 181.078125 198.9375 C 180.308594 197.921875 179.277344 196.242188 178.890625 195.65625 L 167.386719 178.363281 L 143.964844 178.363281 C 140.332031 178.363281 137.34375 175.375 137.34375 171.742188 L 137.34375 142.285156 Z M 137.3125 142.253906 " fill-opacity="1" fill-rule="evenodd"/></g><path fill="#011f26" d="M 152.851562 146.257812 C 154.699219 146.257812 156.207031 147.765625 156.207031 149.613281 L 156.207031 161.625 C 156.207031 163.472656 154.699219 164.980469 152.851562 164.980469 C 151.003906 164.980469 149.496094 163.472656 149.496094 161.625 L 149.496094 149.613281 C 149.496094 147.765625 151.003906 146.257812 152.851562 146.257812 Z M 152.851562 146.257812 " fill-opacity="1" fill-rule="evenodd"/><path fill="#011f26" d="M 168.652344 133.738281 C 170.5 133.738281 172.007812 135.246094 172.007812 137.09375 L 172.007812 161.625 C 172.007812 163.472656 170.5 164.980469 168.652344 164.980469 C 166.804688 164.980469 165.292969 163.472656 165.292969 161.625 L 165.292969 137.09375 C 165.292969 135.246094 166.804688 133.738281 168.652344 133.738281 Z M 168.652344 133.738281 " fill-opacity="1" fill-rule="evenodd"/><path fill="#011f26" d="M 184.433594 120.449219 C 186.28125 120.449219 187.792969 121.957031 187.792969 123.804688 L 187.792969 161.625 C 187.792969 163.472656 186.28125 164.980469 184.433594 164.980469 C 182.585938 164.980469 181.078125 163.472656 181.078125 161.625 L 181.078125 123.804688 C 181.078125 121.957031 182.585938 120.449219 184.433594 120.449219 Z M 184.433594 120.449219 " fill-opacity="1" fill-rule="evenodd"/><path fill="#011f26" d="M 200.234375 111.085938 C 202.082031 111.085938 203.589844 112.59375 203.589844 114.441406 L 203.589844 161.625 C 203.589844 163.472656 202.082031 164.980469 200.234375 164.980469 C 198.386719 164.980469 196.878906 163.472656 196.878906 161.625 L 196.878906 114.441406 C 196.878906 112.59375 198.386719 111.085938 200.234375 111.085938 Z M 200.234375 111.085938 " fill-opacity="1" fill-rule="evenodd"/><g fill="#0d8d50" fill-opacity="1"><g transform="translate(93.278151, 245.474602)"><g><path d="M 11.703125 -4.265625 L 11.703125 -8.28125 L 17.046875 -8.28125 L 17.046875 -4.90625 C 17.046875 -1.363281 15.382812 0.40625 12.0625 0.40625 L 7 0.40625 C 3.675781 0.40625 2.015625 -1.363281 2.015625 -4.90625 L 2.015625 -21.109375 C 2.015625 -24.640625 3.675781 -26.40625 7 -26.40625 L 12.0625 -26.40625 C 15.382812 -26.40625 17.046875 -24.640625 17.046875 -21.109375 L 17.046875 -18.65625 L 11.703125 -18.65625 L 11.703125 -21.796875 C 11.703125 -22.003906 11.625 -22.1875 11.46875 -22.34375 C 11.320312 -22.507812 11.144531 -22.59375 10.9375 -22.59375 L 8.40625 -22.59375 C 8.1875 -22.59375 8.003906 -22.507812 7.859375 -22.34375 C 7.710938 -22.1875 7.640625 -22.003906 7.640625 -21.796875 L 7.640625 -4.265625 C 7.640625 -4.046875 7.710938 -3.851562 7.859375 -3.6875 C 8.003906 -3.53125 8.1875 -3.453125 8.40625 -3.453125 L 10.9375 -3.453125 C 11.144531 -3.453125 11.320312 -3.53125 11.46875 -3.6875 C 11.625 -3.851562 11.703125 -4.046875 11.703125 -4.265625 Z M 11.703125 -4.265625 "/></g></g></g><g fill="#0d8d50" fill-opacity="1"><g transform="translate(111.687562, 245.474602)"><g><path d="M 10.171875 -20.015625 L 11.21875 -20.015625 L 11.21875 -14.796875 L 8.5625 -14.796875 C 7.65625 -14.796875 7.203125 -14.328125 7.203125 -13.390625 L 7.203125 0 L 1.8125 0 L 1.8125 -19.625 L 6.71875 -19.625 L 6.71875 -17.734375 C 7.488281 -19.253906 8.640625 -20.015625 10.171875 -20.015625 Z M 10.171875 -20.015625 "/></g></g></g><g fill="#0d8d50" fill-opacity="1"><g transform="translate(123.504959, 245.474602)"><g><path d="M 10.9375 -19.625 L 16.328125 -19.625 L 16.328125 1.484375 C 16.328125 5.023438 14.664062 6.796875 11.34375 6.796875 L 7.3125 6.796875 C 3.988281 6.796875 2.328125 5.023438 2.328125 1.484375 L 2.328125 0.84375 L 7.5625 0.84375 L 7.5625 2.125 C 7.5625 2.34375 7.632812 2.53125 7.78125 2.6875 C 7.925781 2.851562 8.109375 2.9375 8.328125 2.9375 L 10.171875 2.9375 C 10.390625 2.9375 10.570312 2.851562 10.71875 2.6875 C 10.863281 2.53125 10.9375 2.34375 10.9375 2.125 L 10.9375 -1.84375 C 10.132812 -1.207031 9.035156 -0.890625 7.640625 -0.890625 L 6.796875 -0.890625 C 3.472656 -0.890625 1.8125 -2.65625 1.8125 -6.1875 L 1.8125 -19.625 L 7.203125 -19.625 L 7.203125 -5.546875 C 7.203125 -5.328125 7.273438 -5.140625 7.421875 -4.984375 C 7.566406 -4.828125 7.742188 -4.75 7.953125 -4.75 L 10.171875 -4.75 C 10.390625 -4.75 10.570312 -4.828125 10.71875 -4.984375 C 10.863281 -5.140625 10.9375 -5.328125 10.9375 -5.546875 Z M 10.9375 -19.625 "/></g></g></g><g fill="#0d8d50" fill-opacity="1"><g transform="translate(141.673197, 245.474602)"><g><path d="M 11.34375 0.40625 L 10.5 0.40625 C 9.125 0.40625 8.023438 0.0820312 7.203125 -0.5625 L 7.203125 6.390625 L 1.8125 6.390625 L 1.8125 -19.625 L 6.359375 -19.625 L 6.359375 -18.171875 C 7.179688 -19.398438 8.5625 -20.015625 10.5 -20.015625 L 11.34375 -20.015625 C 14.664062 -20.015625 16.328125 -18.25 16.328125 -14.71875 L 16.328125 -4.90625 C 16.328125 -1.363281 14.664062 0.40625 11.34375 0.40625 Z M 7.203125 -15.359375 L 7.203125 -4.265625 C 7.203125 -4.046875 7.273438 -3.851562 7.421875 -3.6875 C 7.566406 -3.53125 7.742188 -3.453125 7.953125 -3.453125 L 10.171875 -3.453125 C 10.390625 -3.453125 10.570312 -3.53125 10.71875 -3.6875 C 10.863281 -3.851562 10.9375 -4.046875 10.9375 -4.265625 L 10.9375 -15.359375 C 10.9375 -15.566406 10.863281 -15.75 10.71875 -15.90625 C 10.570312 -16.070312 10.390625 -16.15625 10.171875 -16.15625 L 7.953125 -16.15625 C 7.742188 -16.15625 7.566406 -16.070312 7.421875 -15.90625 C 7.273438 -15.75 7.203125 -15.566406 7.203125 -15.359375 Z M 7.203125 -15.359375 "/></g></g></g><g fill="#0d8d50" fill-opacity="1"><g transform="translate(159.841435, 245.474602)"><g><path d="M 8.96875 -3.09375 L 10.578125 -3.09375 L 10.578125 0.40625 L 6.796875 0.40625 C 3.472656 0.40625 1.8125 -1.363281 1.8125 -4.90625 L 1.8125 -23.875 L 7.203125 -23.875 L 7.203125 -19.625 L 10.578125 -19.625 L 10.578125 -15.71875 L 7.203125 -15.71875 L 7.203125 -5.03125 C 7.203125 -4.28125 7.347656 -3.769531 7.640625 -3.5 C 7.929688 -3.226562 8.375 -3.09375 8.96875 -3.09375 Z M 8.96875 -3.09375 "/></g></g></g><g fill="#0d8d50" fill-opacity="1"><g transform="translate(171.41766, 245.474602)"><g><path d="M 16.328125 -14.71875 L 16.328125 -4.90625 C 16.328125 -1.363281 14.664062 0.40625 11.34375 0.40625 L 6.796875 0.40625 C 3.472656 0.40625 1.8125 -1.363281 1.8125 -4.90625 L 1.8125 -14.71875 C 1.8125 -18.25 3.472656 -20.015625 6.796875 -20.015625 L 11.34375 -20.015625 C 14.664062 -20.015625 16.328125 -18.25 16.328125 -14.71875 Z M 10.9375 -3.78125 L 10.9375 -15.875 C 10.9375 -16.09375 10.863281 -16.28125 10.71875 -16.4375 C 10.570312 -16.601562 10.390625 -16.6875 10.171875 -16.6875 L 7.953125 -16.6875 C 7.742188 -16.6875 7.566406 -16.601562 7.421875 -16.4375 C 7.273438 -16.28125 7.203125 -16.09375 7.203125 -15.875 L 7.203125 -3.78125 C 7.203125 -3.5625 7.273438 -3.367188 7.421875 -3.203125 C 7.566406 -3.046875 7.742188 -2.96875 7.953125 -2.96875 L 10.171875 -2.96875 C 10.390625 -2.96875 10.570312 -3.046875 10.71875 -3.203125 C 10.863281 -3.367188 10.9375 -3.5625 10.9375 -3.78125 Z M 10.9375 -3.78125 "/></g></g></g><g fill="#0d8d50" fill-opacity="1"><g transform="translate(189.585898, 245.474602)"><g><path d="M 7.640625 -10.65625 L 7.640625 0 L 2.015625 0 L 2.015625 -26.015625 L 12.015625 -26.015625 C 15.335938 -26.015625 17 -24.242188 17 -20.703125 L 17 -17.6875 C 17 -15.539062 16.238281 -14.175781 14.71875 -13.59375 C 16.050781 -13.101562 16.71875 -12.003906 16.71875 -10.296875 L 16.71875 0 L 11.09375 0 L 11.09375 -9.84375 C 11.09375 -10.382812 10.835938 -10.65625 10.328125 -10.65625 Z M 7.640625 -22.1875 L 7.640625 -14.59375 L 10.609375 -14.59375 C 10.828125 -14.59375 11.007812 -14.671875 11.15625 -14.828125 C 11.300781 -14.992188 11.375 -15.179688 11.375 -15.390625 L 11.375 -21.390625 C 11.375 -21.597656 11.300781 -21.78125 11.15625 -21.9375 C 11.007812 -22.101562 10.828125 -22.1875 10.609375 -22.1875 Z M 7.640625 -22.1875 "/></g></g></g><g fill="#0d8d50" fill-opacity="1"><g transform="translate(208.19629, 245.474602)"><g><path d="M 7.296875 -22.078125 C 6.722656 -21.515625 6.03125 -21.234375 5.21875 -21.234375 C 4.414062 -21.234375 3.71875 -21.519531 3.125 -22.09375 C 2.539062 -22.664062 2.25 -23.359375 2.25 -24.171875 C 2.25 -24.992188 2.539062 -25.691406 3.125 -26.265625 C 3.71875 -26.847656 4.414062 -27.140625 5.21875 -27.140625 C 6.03125 -27.140625 6.722656 -26.847656 7.296875 -26.265625 C 7.867188 -25.691406 8.15625 -24.988281 8.15625 -24.15625 C 8.15625 -23.332031 7.867188 -22.640625 7.296875 -22.078125 Z M 2.53125 0 L 2.53125 -19.625 L 7.921875 -19.625 L 7.921875 0 Z M 2.53125 0 "/></g></g></g><g fill="#0d8d50" fill-opacity="1"><g transform="translate(218.084316, 245.474602)"><g><path d="M 11.0625 -12.296875 C 14.382812 -12.296875 16.046875 -10.53125 16.046875 -7 L 16.046875 -4.90625 C 16.046875 -1.363281 14.382812 0.40625 11.0625 0.40625 L 6.59375 0.40625 C 3.269531 0.40625 1.609375 -1.363281 1.609375 -4.90625 L 1.609375 -6.15625 L 6.59375 -6.15625 L 6.59375 -4.375 C 6.59375 -4.164062 6.664062 -3.976562 6.8125 -3.8125 C 6.957031 -3.65625 7.140625 -3.578125 7.359375 -3.578125 L 10.65625 -3.578125 C 10.863281 -3.578125 11.039062 -3.65625 11.1875 -3.8125 C 11.34375 -3.976562 11.421875 -4.164062 11.421875 -4.375 L 11.421875 -6.796875 C 11.421875 -7.003906 11.34375 -7.1875 11.1875 -7.34375 C 11.039062 -7.507812 10.863281 -7.59375 10.65625 -7.59375 L 6.515625 -7.59375 C 3.191406 -7.59375 1.53125 -9.363281 1.53125 -12.90625 L 1.53125 -14.71875 C 1.53125 -18.25 3.191406 -20.015625 6.515625 -20.015625 L 10.734375 -20.015625 C 14.054688 -20.015625 15.71875 -18.25 15.71875 -14.71875 L 15.71875 -13.984375 L 10.734375 -13.984375 L 10.734375 -15.234375 C 10.734375 -15.453125 10.660156 -15.640625 10.515625 -15.796875 C 10.367188 -15.960938 10.1875 -16.046875 9.96875 -16.046875 L 6.921875 -16.046875 C 6.703125 -16.046875 6.519531 -15.960938 6.375 -15.796875 C 6.226562 -15.640625 6.15625 -15.453125 6.15625 -15.234375 L 6.15625 -13.109375 C 6.15625 -12.890625 6.226562 -12.695312 6.375 -12.53125 C 6.519531 -12.375 6.703125 -12.296875 6.921875 -12.296875 Z M 11.0625 -12.296875 "/></g></g></g><g fill="#0d8d50" fill-opacity="1"><g transform="translate(235.488845, 245.474602)"><g><path d="M 7.296875 -22.078125 C 6.722656 -21.515625 6.03125 -21.234375 5.21875 -21.234375 C 4.414062 -21.234375 3.71875 -21.519531 3.125 -22.09375 C 2.539062 -22.664062 2.25 -23.359375 2.25 -24.171875 C 2.25 -24.992188 2.539062 -25.691406 3.125 -26.265625 C 3.71875 -26.847656 4.414062 -27.140625 5.21875 -27.140625 C 6.03125 -27.140625 6.722656 -26.847656 7.296875 -26.265625 C 7.867188 -25.691406 8.15625 -24.988281 8.15625 -24.15625 C 8.15625 -23.332031 7.867188 -22.640625 7.296875 -22.078125 Z M 2.53125 0 L 2.53125 -19.625 L 7.921875 -19.625 L 7.921875 0 Z M 2.53125 0 "/></g></g></g><g fill="#0d8d50" fill-opacity="1"><g transform="translate(245.376871, 245.474602)"><g><path d="M 7.203125 0 L 1.8125 0 L 1.8125 -19.625 L 6.71875 -19.625 L 6.71875 -18.609375 C 7.539062 -19.546875 8.800781 -20.015625 10.5 -20.015625 L 11.34375 -20.015625 C 14.664062 -20.015625 16.328125 -18.25 16.328125 -14.71875 L 16.328125 0 L 10.9375 0 L 10.9375 -15.359375 C 10.9375 -15.566406 10.863281 -15.75 10.71875 -15.90625 C 10.570312 -16.070312 10.390625 -16.15625 10.171875 -16.15625 L 7.953125 -16.15625 C 7.742188 -16.15625 7.566406 -16.070312 7.421875 -15.90625 C 7.273438 -15.75 7.203125 -15.566406 7.203125 -15.359375 Z M 7.203125 0 "/></g></g></g><g fill="#0d8d50" fill-opacity="1"><g transform="translate(263.545109, 245.474602)"><g><path d="M 16.328125 -19.625 L 16.328125 1.484375 C 16.328125 5.023438 14.664062 6.796875 11.34375 6.796875 L 7.3125 6.796875 C 3.988281 6.796875 2.328125 5.023438 2.328125 1.484375 L 2.328125 0.84375 L 7.203125 0.84375 L 7.203125 2.125 C 7.203125 2.34375 7.273438 2.53125 7.421875 2.6875 C 7.566406 2.851562 7.742188 2.9375 7.953125 2.9375 L 10.171875 2.9375 C 10.390625 2.9375 10.570312 2.851562 10.71875 2.6875 C 10.863281 2.53125 10.9375 2.34375 10.9375 2.125 L 10.9375 -1.890625 C 10.101562 -1.242188 9.003906 -0.921875 7.640625 -0.921875 L 6.796875 -0.921875 C 3.472656 -0.921875 1.8125 -2.691406 1.8125 -6.234375 L 1.8125 -14.71875 C 1.8125 -18.25 3.472656 -20.015625 6.796875 -20.015625 L 7.640625 -20.015625 C 9.566406 -20.015625 10.945312 -19.398438 11.78125 -18.171875 L 11.78125 -19.625 Z M 10.9375 -5.59375 L 10.9375 -15.359375 C 10.9375 -15.566406 10.863281 -15.75 10.71875 -15.90625 C 10.570312 -16.070312 10.390625 -16.15625 10.171875 -16.15625 L 7.953125 -16.15625 C 7.742188 -16.15625 7.566406 -16.070312 7.421875 -15.90625 C 7.273438 -15.75 7.203125 -15.566406 7.203125 -15.359375 L 7.203125 -5.59375 C 7.203125 -5.375 7.273438 -5.179688 7.421875 -5.015625 C 7.566406 -4.859375 7.742188 -4.78125 7.953125 -4.78125 L 10.171875 -4.78125 C 10.390625 -4.78125 10.570312 -4.859375 10.71875 -5.015625 C 10.863281 -5.179688 10.9375 -5.375 10.9375 -5.59375 Z M 10.9375 -5.59375 "/></g></g></g><g fill="#011f26" fill-opacity="1"><g transform="translate(100.053117, 270.692442)"><g><path d="M 8.25 -8.703125 C 8.25 -8.617188 8.222656 -8.550781 8.171875 -8.5 C 8.117188 -8.457031 8.054688 -8.4375 7.984375 -8.4375 L 3.359375 -8.4375 C 3.285156 -8.4375 3.25 -8.398438 3.25 -8.328125 L 3.25 -6.53125 C 3.25 -6.457031 3.285156 -6.421875 3.359375 -6.421875 L 6.265625 -6.421875 C 6.347656 -6.421875 6.414062 -6.394531 6.46875 -6.34375 C 6.519531 -6.289062 6.546875 -6.226562 6.546875 -6.15625 L 6.546875 -4.5625 C 6.546875 -4.476562 6.519531 -4.410156 6.46875 -4.359375 C 6.414062 -4.316406 6.347656 -4.296875 6.265625 -4.296875 L 3.359375 -4.296875 C 3.285156 -4.296875 3.25 -4.257812 3.25 -4.1875 L 3.25 -2.25 C 3.25 -2.175781 3.285156 -2.140625 3.359375 -2.140625 L 7.984375 -2.140625 C 8.054688 -2.140625 8.117188 -2.113281 8.171875 -2.0625 C 8.222656 -2.019531 8.25 -1.957031 8.25 -1.875 L 8.25 -0.265625 C 8.25 -0.191406 8.222656 -0.128906 8.171875 -0.078125 C 8.117188 -0.0234375 8.054688 0 7.984375 0 L 1.015625 0 C 0.929688 0 0.863281 -0.0234375 0.8125 -0.078125 C 0.757812 -0.128906 0.734375 -0.191406 0.734375 -0.265625 L 0.734375 -10.296875 C 0.734375 -10.378906 0.757812 -10.445312 0.8125 -10.5 C 0.863281 -10.550781 0.929688 -10.578125 1.015625 -10.578125 L 7.984375 -10.578125 C 8.054688 -10.578125 8.117188 -10.550781 8.171875 -10.5 C 8.222656 -10.445312 8.25 -10.378906 8.25 -10.296875 Z M 8.25 -8.703125 "/></g></g></g><g fill="#011f26" fill-opacity="1"><g transform="translate(112.170475, 270.692442)"><g><path d="M 4.625 0.125 C 3.820312 0.125 3.113281 -0.03125 2.5 -0.34375 C 1.894531 -0.65625 1.421875 -1.097656 1.078125 -1.671875 C 0.742188 -2.242188 0.578125 -2.910156 0.578125 -3.671875 L 0.578125 -6.9375 C 0.578125 -7.675781 0.742188 -8.332031 1.078125 -8.90625 C 1.421875 -9.476562 1.894531 -9.921875 2.5 -10.234375 C 3.113281 -10.546875 3.820312 -10.703125 4.625 -10.703125 C 5.425781 -10.703125 6.128906 -10.550781 6.734375 -10.25 C 7.347656 -9.957031 7.820312 -9.539062 8.15625 -9 C 8.5 -8.457031 8.671875 -7.832031 8.671875 -7.125 C 8.671875 -7.039062 8.585938 -6.988281 8.421875 -6.96875 L 6.453125 -6.828125 L 6.375 -6.828125 C 6.238281 -6.828125 6.171875 -6.851562 6.171875 -6.90625 L 6.171875 -7 C 6.171875 -7.46875 6.023438 -7.84375 5.734375 -8.125 C 5.453125 -8.40625 5.082031 -8.546875 4.625 -8.546875 C 4.15625 -8.546875 3.78125 -8.398438 3.5 -8.109375 C 3.21875 -7.828125 3.078125 -7.457031 3.078125 -7 L 3.078125 -3.5625 C 3.078125 -3.101562 3.21875 -2.734375 3.5 -2.453125 C 3.78125 -2.171875 4.15625 -2.03125 4.625 -2.03125 C 5.082031 -2.03125 5.453125 -2.171875 5.734375 -2.453125 C 6.023438 -2.734375 6.171875 -3.101562 6.171875 -3.5625 C 6.171875 -3.625 6.191406 -3.671875 6.234375 -3.703125 C 6.273438 -3.734375 6.34375 -3.742188 6.4375 -3.734375 L 8.421875 -3.625 C 8.585938 -3.601562 8.671875 -3.578125 8.671875 -3.546875 L 8.671875 -3.46875 C 8.671875 -2.757812 8.5 -2.128906 8.15625 -1.578125 C 7.820312 -1.035156 7.347656 -0.613281 6.734375 -0.3125 C 6.128906 -0.0195312 5.425781 0.125 4.625 0.125 Z M 4.625 0.125 "/></g></g></g><g fill="#011f26" fill-opacity="1"><g transform="translate(124.771209, 270.692442)"><g><path d="M 4.6875 0.171875 C 3.863281 0.171875 3.144531 0.0078125 2.53125 -0.3125 C 1.914062 -0.644531 1.4375 -1.109375 1.09375 -1.703125 C 0.75 -2.296875 0.578125 -2.988281 0.578125 -3.78125 L 0.578125 -6.796875 C 0.578125 -7.566406 0.75 -8.242188 1.09375 -8.828125 C 1.4375 -9.421875 1.914062 -9.878906 2.53125 -10.203125 C 3.144531 -10.535156 3.863281 -10.703125 4.6875 -10.703125 C 5.5 -10.703125 6.21875 -10.535156 6.84375 -10.203125 C 7.46875 -9.878906 7.953125 -9.421875 8.296875 -8.828125 C 8.640625 -8.242188 8.8125 -7.566406 8.8125 -6.796875 L 8.8125 -3.78125 C 8.8125 -2.988281 8.640625 -2.296875 8.296875 -1.703125 C 7.953125 -1.109375 7.46875 -0.644531 6.84375 -0.3125 C 6.21875 0.0078125 5.5 0.171875 4.6875 0.171875 Z M 4.6875 -1.984375 C 5.164062 -1.984375 5.550781 -2.140625 5.84375 -2.453125 C 6.144531 -2.765625 6.296875 -3.179688 6.296875 -3.703125 L 6.296875 -6.828125 C 6.296875 -7.335938 6.144531 -7.75 5.84375 -8.0625 C 5.550781 -8.382812 5.164062 -8.546875 4.6875 -8.546875 C 4.207031 -8.546875 3.816406 -8.382812 3.515625 -8.0625 C 3.222656 -7.75 3.078125 -7.335938 3.078125 -6.828125 L 3.078125 -3.703125 C 3.078125 -3.179688 3.222656 -2.765625 3.515625 -2.453125 C 3.816406 -2.140625 4.207031 -1.984375 4.6875 -1.984375 Z M 4.6875 -1.984375 "/></g></g></g><g fill="#011f26" fill-opacity="1"><g transform="translate(137.553207, 270.692442)"><g><path d="M 1.03125 0 C 0.945312 0 0.878906 -0.0234375 0.828125 -0.078125 C 0.773438 -0.128906 0.75 -0.191406 0.75 -0.265625 L 0.75 -10.296875 C 0.75 -10.378906 0.773438 -10.445312 0.828125 -10.5 C 0.878906 -10.550781 0.945312 -10.578125 1.03125 -10.578125 L 2.890625 -10.578125 C 3.023438 -10.578125 3.128906 -10.515625 3.203125 -10.390625 L 6.53125 -4.78125 C 6.550781 -4.738281 6.570312 -4.722656 6.59375 -4.734375 C 6.625 -4.742188 6.640625 -4.769531 6.640625 -4.8125 L 6.640625 -10.296875 C 6.640625 -10.378906 6.660156 -10.445312 6.703125 -10.5 C 6.753906 -10.550781 6.820312 -10.578125 6.90625 -10.578125 L 8.84375 -10.578125 C 8.914062 -10.578125 8.976562 -10.550781 9.03125 -10.5 C 9.082031 -10.445312 9.109375 -10.378906 9.109375 -10.296875 L 9.109375 -0.265625 C 9.109375 -0.191406 9.082031 -0.128906 9.03125 -0.078125 C 8.976562 -0.0234375 8.914062 0 8.84375 0 L 6.984375 0 C 6.847656 0 6.738281 -0.0625 6.65625 -0.1875 L 3.34375 -5.875 C 3.320312 -5.925781 3.289062 -5.945312 3.25 -5.9375 C 3.21875 -5.925781 3.203125 -5.894531 3.203125 -5.84375 L 3.234375 -0.265625 C 3.234375 -0.191406 3.207031 -0.128906 3.15625 -0.078125 C 3.101562 -0.0234375 3.039062 0 2.96875 0 Z M 1.03125 0 "/></g></g></g><g fill="#011f26" fill-opacity="1"><g transform="translate(150.818579, 270.692442)"><g><path d="M 4.6875 0.171875 C 3.863281 0.171875 3.144531 0.0078125 2.53125 -0.3125 C 1.914062 -0.644531 1.4375 -1.109375 1.09375 -1.703125 C 0.75 -2.296875 0.578125 -2.988281 0.578125 -3.78125 L 0.578125 -6.796875 C 0.578125 -7.566406 0.75 -8.242188 1.09375 -8.828125 C 1.4375 -9.421875 1.914062 -9.878906 2.53125 -10.203125 C 3.144531 -10.535156 3.863281 -10.703125 4.6875 -10.703125 C 5.5 -10.703125 6.21875 -10.535156 6.84375 -10.203125 C 7.46875 -9.878906 7.953125 -9.421875 8.296875 -8.828125 C 8.640625 -8.242188 8.8125 -7.566406 8.8125 -6.796875 L 8.8125 -3.78125 C 8.8125 -2.988281 8.640625 -2.296875 8.296875 -1.703125 C 7.953125 -1.109375 7.46875 -0.644531 6.84375 -0.3125 C 6.21875 0.0078125 5.5 0.171875 4.6875 0.171875 Z M 4.6875 -1.984375 C 5.164062 -1.984375 5.550781 -2.140625 5.84375 -2.453125 C 6.144531 -2.765625 6.296875 -3.179688 6.296875 -3.703125 L 6.296875 -6.828125 C 6.296875 -7.335938 6.144531 -7.75 5.84375 -8.0625 C 5.550781 -8.382812 5.164062 -8.546875 4.6875 -8.546875 C 4.207031 -8.546875 3.816406 -8.382812 3.515625 -8.0625 C 3.222656 -7.75 3.078125 -7.335938 3.078125 -6.828125 L 3.078125 -3.703125 C 3.078125 -3.179688 3.222656 -2.765625 3.515625 -2.453125 C 3.816406 -2.140625 4.207031 -1.984375 4.6875 -1.984375 Z M 4.6875 -1.984375 "/></g></g></g><g fill="#011f26" fill-opacity="1"><g transform="translate(163.600576, 270.692442)"><g><path d="M 1.03125 0 C 0.945312 0 0.878906 -0.0234375 0.828125 -0.078125 C 0.773438 -0.128906 0.75 -0.191406 0.75 -0.265625 L 0.75 -10.296875 C 0.75 -10.378906 0.773438 -10.445312 0.828125 -10.5 C 0.878906 -10.550781 0.945312 -10.578125 1.03125 -10.578125 L 2.96875 -10.578125 C 3.113281 -10.578125 3.222656 -10.515625 3.296875 -10.390625 L 5.296875 -7.140625 C 5.347656 -7.078125 5.398438 -7.078125 5.453125 -7.140625 L 7.484375 -10.390625 C 7.546875 -10.515625 7.648438 -10.578125 7.796875 -10.578125 L 9.75 -10.578125 C 9.820312 -10.578125 9.882812 -10.550781 9.9375 -10.5 C 9.988281 -10.445312 10.015625 -10.378906 10.015625 -10.296875 L 10.015625 -0.265625 C 10.015625 -0.191406 9.988281 -0.128906 9.9375 -0.078125 C 9.882812 -0.0234375 9.820312 0 9.75 0 L 7.78125 0 C 7.695312 0 7.628906 -0.0234375 7.578125 -0.078125 C 7.535156 -0.128906 7.515625 -0.191406 7.515625 -0.265625 L 7.515625 -6.1875 C 7.515625 -6.226562 7.5 -6.253906 7.46875 -6.265625 C 7.4375 -6.273438 7.410156 -6.253906 7.390625 -6.203125 L 6.171875 -4.21875 C 6.097656 -4.09375 5.988281 -4.03125 5.84375 -4.03125 L 4.921875 -4.03125 C 4.785156 -4.03125 4.679688 -4.09375 4.609375 -4.21875 L 3.390625 -6.203125 C 3.367188 -6.253906 3.34375 -6.273438 3.3125 -6.265625 C 3.28125 -6.253906 3.265625 -6.226562 3.265625 -6.1875 L 3.265625 -0.265625 C 3.265625 -0.191406 3.238281 -0.128906 3.1875 -0.078125 C 3.132812 -0.0234375 3.066406 0 2.984375 0 Z M 1.03125 0 "/></g></g></g><g fill="#011f26" fill-opacity="1"><g transform="translate(177.772274, 270.692442)"><g><path d="M 1.015625 0 C 0.929688 0 0.863281 -0.0234375 0.8125 -0.078125 C 0.757812 -0.128906 0.734375 -0.191406 0.734375 -0.265625 L 0.734375 -10.296875 C 0.734375 -10.378906 0.757812 -10.445312 0.8125 -10.5 C 0.863281 -10.550781 0.929688 -10.578125 1.015625 -10.578125 L 2.96875 -10.578125 C 3.050781 -10.578125 3.117188 -10.550781 3.171875 -10.5 C 3.222656 -10.445312 3.25 -10.378906 3.25 -10.296875 L 3.25 -0.265625 C 3.25 -0.191406 3.222656 -0.128906 3.171875 -0.078125 C 3.117188 -0.0234375 3.050781 0 2.96875 0 Z M 1.015625 0 "/></g></g></g><g fill="#011f26" fill-opacity="1"><g transform="translate(185.176716, 270.692442)"><g><path d="M 7.71875 0 C 7.5625 0 7.460938 -0.078125 7.421875 -0.234375 L 7.078125 -1.46875 C 7.066406 -1.53125 7.023438 -1.5625 6.953125 -1.5625 L 3.53125 -1.5625 C 3.46875 -1.5625 3.429688 -1.53125 3.421875 -1.46875 L 3.0625 -0.234375 C 3.019531 -0.078125 2.921875 0 2.765625 0 L 0.640625 0 C 0.535156 0 0.460938 -0.0234375 0.421875 -0.078125 C 0.378906 -0.140625 0.375 -0.210938 0.40625 -0.296875 L 3.578125 -10.34375 C 3.628906 -10.5 3.734375 -10.578125 3.890625 -10.578125 L 6.578125 -10.578125 C 6.742188 -10.578125 6.847656 -10.5 6.890625 -10.34375 L 10.078125 -0.296875 C 10.085938 -0.273438 10.09375 -0.242188 10.09375 -0.203125 C 10.09375 -0.0664062 10.007812 0 9.84375 0 Z M 4.03125 -3.578125 C 4.03125 -3.515625 4.0625 -3.484375 4.125 -3.484375 L 6.359375 -3.484375 C 6.398438 -3.484375 6.425781 -3.492188 6.4375 -3.515625 C 6.457031 -3.546875 6.460938 -3.578125 6.453125 -3.609375 L 5.296875 -7.625 C 5.285156 -7.675781 5.269531 -7.703125 5.25 -7.703125 C 5.226562 -7.703125 5.207031 -7.675781 5.1875 -7.625 L 4.03125 -3.609375 Z M 4.03125 -3.578125 "/></g></g></g><g fill="#011f26" fill-opacity="1"><g transform="translate(199.061419, 270.692442)"><g/></g></g><g fill="#011f26" fill-opacity="1"><g transform="translate(205.484014, 270.692442)"><g><path d="M 1.015625 0 C 0.929688 0 0.863281 -0.0234375 0.8125 -0.078125 C 0.757812 -0.128906 0.734375 -0.191406 0.734375 -0.265625 L 0.734375 -10.296875 C 0.734375 -10.378906 0.757812 -10.445312 0.8125 -10.5 C 0.863281 -10.550781 0.929688 -10.578125 1.015625 -10.578125 L 4.78125 -10.578125 C 5.5625 -10.578125 6.253906 -10.441406 6.859375 -10.171875 C 7.460938 -9.898438 7.929688 -9.507812 8.265625 -9 C 8.597656 -8.5 8.765625 -7.921875 8.765625 -7.265625 L 8.765625 -3.3125 C 8.765625 -2.65625 8.597656 -2.070312 8.265625 -1.5625 C 7.929688 -1.0625 7.460938 -0.675781 6.859375 -0.40625 C 6.253906 -0.132812 5.5625 0 4.78125 0 Z M 3.25 -2.25 C 3.25 -2.175781 3.285156 -2.140625 3.359375 -2.140625 L 4.875 -2.140625 C 5.28125 -2.140625 5.609375 -2.28125 5.859375 -2.5625 C 6.109375 -2.851562 6.238281 -3.242188 6.25 -3.734375 L 6.25 -6.84375 C 6.25 -7.320312 6.117188 -7.707031 5.859375 -8 C 5.609375 -8.289062 5.273438 -8.4375 4.859375 -8.4375 L 3.359375 -8.4375 C 3.285156 -8.4375 3.25 -8.398438 3.25 -8.328125 Z M 3.25 -2.25 "/></g></g></g><g fill="#011f26" fill-opacity="1"><g transform="translate(218.220693, 270.692442)"><g><path d="M 1.015625 0 C 0.929688 0 0.863281 -0.0234375 0.8125 -0.078125 C 0.757812 -0.128906 0.734375 -0.191406 0.734375 -0.265625 L 0.734375 -10.296875 C 0.734375 -10.378906 0.757812 -10.445312 0.8125 -10.5 C 0.863281 -10.550781 0.929688 -10.578125 1.015625 -10.578125 L 2.96875 -10.578125 C 3.050781 -10.578125 3.117188 -10.550781 3.171875 -10.5 C 3.222656 -10.445312 3.25 -10.378906 3.25 -10.296875 L 3.25 -0.265625 C 3.25 -0.191406 3.222656 -0.128906 3.171875 -0.078125 C 3.117188 -0.0234375 3.050781 0 2.96875 0 Z M 1.015625 0 "/></g></g></g><g fill="#011f26" fill-opacity="1"><g transform="translate(225.625134, 270.692442)"><g><path d="M 4.625 0.125 C 3.820312 0.125 3.113281 -0.0351562 2.5 -0.359375 C 1.894531 -0.679688 1.421875 -1.132812 1.078125 -1.71875 C 0.742188 -2.300781 0.578125 -2.976562 0.578125 -3.75 L 0.578125 -6.84375 C 0.578125 -7.613281 0.742188 -8.285156 1.078125 -8.859375 C 1.421875 -9.441406 1.894531 -9.894531 2.5 -10.21875 C 3.113281 -10.539062 3.820312 -10.703125 4.625 -10.703125 C 5.414062 -10.703125 6.117188 -10.546875 6.734375 -10.234375 C 7.347656 -9.929688 7.820312 -9.507812 8.15625 -8.96875 C 8.5 -8.4375 8.671875 -7.847656 8.671875 -7.203125 C 8.671875 -7.035156 8.582031 -6.953125 8.40625 -6.953125 L 6.4375 -6.953125 C 6.257812 -6.953125 6.171875 -6.984375 6.171875 -7.046875 L 6.171875 -7.125 C 6.171875 -7.519531 6.03125 -7.851562 5.75 -8.125 C 5.46875 -8.40625 5.09375 -8.546875 4.625 -8.546875 C 4.15625 -8.546875 3.78125 -8.394531 3.5 -8.09375 C 3.21875 -7.789062 3.078125 -7.398438 3.078125 -6.921875 L 3.078125 -3.671875 C 3.078125 -3.191406 3.234375 -2.800781 3.546875 -2.5 C 3.859375 -2.195312 4.253906 -2.046875 4.734375 -2.046875 C 5.171875 -2.046875 5.523438 -2.160156 5.796875 -2.390625 C 6.066406 -2.628906 6.203125 -2.960938 6.203125 -3.390625 L 6.203125 -3.78125 C 6.203125 -3.851562 6.171875 -3.890625 6.109375 -3.890625 L 4.71875 -3.890625 C 4.632812 -3.890625 4.566406 -3.910156 4.515625 -3.953125 C 4.460938 -4.003906 4.4375 -4.070312 4.4375 -4.15625 L 4.4375 -5.640625 C 4.4375 -5.710938 4.460938 -5.773438 4.515625 -5.828125 C 4.566406 -5.878906 4.632812 -5.90625 4.71875 -5.90625 L 8.40625 -5.90625 C 8.476562 -5.90625 8.539062 -5.878906 8.59375 -5.828125 C 8.644531 -5.773438 8.671875 -5.710938 8.671875 -5.640625 L 8.671875 -3.671875 C 8.671875 -2.910156 8.5 -2.242188 8.15625 -1.671875 C 7.820312 -1.097656 7.347656 -0.65625 6.734375 -0.34375 C 6.128906 -0.03125 5.425781 0.125 4.625 0.125 Z M 4.625 0.125 "/></g></g></g><g fill="#011f26" fill-opacity="1"><g transform="translate(238.210762, 270.692442)"><g><path d="M 1.015625 0 C 0.929688 0 0.863281 -0.0234375 0.8125 -0.078125 C 0.757812 -0.128906 0.734375 -0.191406 0.734375 -0.265625 L 0.734375 -10.296875 C 0.734375 -10.378906 0.757812 -10.445312 0.8125 -10.5 C 0.863281 -10.550781 0.929688 -10.578125 1.015625 -10.578125 L 2.96875 -10.578125 C 3.050781 -10.578125 3.117188 -10.550781 3.171875 -10.5 C 3.222656 -10.445312 3.25 -10.378906 3.25 -10.296875 L 3.25 -0.265625 C 3.25 -0.191406 3.222656 -0.128906 3.171875 -0.078125 C 3.117188 -0.0234375 3.050781 0 2.96875 0 Z M 1.015625 0 "/></g></g></g><g fill="#011f26" fill-opacity="1"><g transform="translate(245.615203, 270.692442)"><g><path d="M 8.296875 -10.578125 C 8.378906 -10.578125 8.441406 -10.550781 8.484375 -10.5 C 8.535156 -10.445312 8.5625 -10.378906 8.5625 -10.296875 L 8.5625 -8.6875 C 8.5625 -8.601562 8.535156 -8.535156 8.484375 -8.484375 C 8.441406 -8.441406 8.378906 -8.421875 8.296875 -8.421875 L 5.765625 -8.421875 C 5.703125 -8.421875 5.671875 -8.382812 5.671875 -8.3125 L 5.671875 -0.265625 C 5.671875 -0.191406 5.644531 -0.128906 5.59375 -0.078125 C 5.539062 -0.0234375 5.472656 0 5.390625 0 L 3.4375 0 C 3.351562 0 3.285156 -0.0234375 3.234375 -0.078125 C 3.179688 -0.128906 3.15625 -0.191406 3.15625 -0.265625 L 3.15625 -8.3125 C 3.15625 -8.382812 3.117188 -8.421875 3.046875 -8.421875 L 0.625 -8.421875 C 0.539062 -8.421875 0.472656 -8.441406 0.421875 -8.484375 C 0.367188 -8.535156 0.34375 -8.601562 0.34375 -8.6875 L 0.34375 -10.296875 C 0.34375 -10.378906 0.367188 -10.445312 0.421875 -10.5 C 0.472656 -10.550781 0.539062 -10.578125 0.625 -10.578125 Z M 8.296875 -10.578125 "/></g></g></g><g fill="#011f26" fill-opacity="1"><g transform="translate(257.928931, 270.692442)"><g><path d="M 7.71875 0 C 7.5625 0 7.460938 -0.078125 7.421875 -0.234375 L 7.078125 -1.46875 C 7.066406 -1.53125 7.023438 -1.5625 6.953125 -1.5625 L 3.53125 -1.5625 C 3.46875 -1.5625 3.429688 -1.53125 3.421875 -1.46875 L 3.0625 -0.234375 C 3.019531 -0.078125 2.921875 0 2.765625 0 L 0.640625 0 C 0.535156 0 0.460938 -0.0234375 0.421875 -0.078125 C 0.378906 -0.140625 0.375 -0.210938 0.40625 -0.296875 L 3.578125 -10.34375 C 3.628906 -10.5 3.734375 -10.578125 3.890625 -10.578125 L 6.578125 -10.578125 C 6.742188 -10.578125 6.847656 -10.5 6.890625 -10.34375 L 10.078125 -0.296875 C 10.085938 -0.273438 10.09375 -0.242188 10.09375 -0.203125 C 10.09375 -0.0664062 10.007812 0 9.84375 0 Z M 4.03125 -3.578125 C 4.03125 -3.515625 4.0625 -3.484375 4.125 -3.484375 L 6.359375 -3.484375 C 6.398438 -3.484375 6.425781 -3.492188 6.4375 -3.515625 C 6.457031 -3.546875 6.460938 -3.578125 6.453125 -3.609375 L 5.296875 -7.625 C 5.285156 -7.675781 5.269531 -7.703125 5.25 -7.703125 C 5.226562 -7.703125 5.207031 -7.675781 5.1875 -7.625 L 4.03125 -3.609375 Z M 4.03125 -3.578125 "/></g></g></g><g fill="#011f26" fill-opacity="1"><g transform="translate(271.813634, 270.692442)"><g><path d="M 1.015625 0 C 0.929688 0 0.863281 -0.0234375 0.8125 -0.078125 C 0.757812 -0.128906 0.734375 -0.191406 0.734375 -0.265625 L 0.734375 -10.296875 C 0.734375 -10.378906 0.757812 -10.445312 0.8125 -10.5 C 0.863281 -10.550781 0.929688 -10.578125 1.015625 -10.578125 L 2.96875 -10.578125 C 3.050781 -10.578125 3.117188 -10.550781 3.171875 -10.5 C 3.222656 -10.445312 3.25 -10.378906 3.25 -10.296875 L 3.25 -2.25 C 3.25 -2.175781 3.285156 -2.140625 3.359375 -2.140625 L 8.046875 -2.140625 C 8.128906 -2.140625 8.195312 -2.113281 8.25 -2.0625 C 8.300781 -2.019531 8.328125 -1.957031 8.328125 -1.875 L 8.328125 -0.265625 C 8.328125 -0.191406 8.300781 -0.128906 8.25 -0.078125 C 8.195312 -0.0234375 8.128906 0 8.046875 0 Z M 1.015625 0 "/></g></g></g></svg>