<svg xmlns="http://www.w3.org/2000/svg" xmlns:xlink="http://www.w3.org/1999/xlink" width="500" zoomAndPan="magnify" viewBox="0 0 375 374.999991" height="500" preserveAspectRatio="xMidYMid meet" version="1.0"><defs><g/><clipPath id="d5e9b5fb89"><path d="M 111.382812 64.007812 L 265.628906 64.007812 L 265.628906 218.253906 L 111.382812 218.253906 Z M 111.382812 64.007812 " clip-rule="nonzero"/></clipPath><clipPath id="2cb7fb31a1"><path d="M 112.132812 264.730469 L 134.761719 264.730469 L 134.761719 273.808594 L 112.132812 273.808594 Z M 112.132812 264.730469 " clip-rule="nonzero"/></clipPath><clipPath id="46f4acc86f"><path d="M 124.710938 78.34375 L 249.960938 78.34375 L 249.960938 203.59375 L 124.710938 203.59375 Z M 124.710938 78.34375 " clip-rule="nonzero"/></clipPath></defs><rect x="-37.5" width="450" fill="#ffffff" y="-37.499999" height="449.999989" fill-opacity="1"/><rect x="-37.5" width="450" fill="#000000" y="-37.499999" height="449.999989" fill-opacity="1"/><g clip-path="url(#d5e9b5fb89)"><path fill="#ffffff" d="M 111.382812 64.007812 L 265.628906 64.007812 L 265.628906 218.253906 L 111.382812 218.253906 Z M 111.382812 64.007812 " fill-opacity="1" fill-rule="nonzero"/></g><g fill="#ffffff" fill-opacity="1"><g transform="translate(111.649026, 251.608738)"><g><path d="M 14.28125 0.84375 C 11.5625 0.84375 9.195312 0.3125 7.1875 -0.75 C 5.1875 -1.8125 3.640625 -3.316406 2.546875 -5.265625 C 1.460938 -7.210938 0.921875 -9.515625 0.921875 -12.171875 C 0.921875 -14.828125 1.441406 -17.128906 2.484375 -19.078125 C 3.523438 -21.023438 5.003906 -22.53125 6.921875 -23.59375 C 8.835938 -24.65625 11.085938 -25.1875 13.671875 -25.1875 C 15.796875 -25.1875 17.691406 -24.8125 19.359375 -24.0625 C 21.023438 -23.320312 22.375 -22.257812 23.40625 -20.875 C 24.4375 -19.488281 25.078125 -17.847656 25.328125 -15.953125 L 18.59375 -14.28125 C 18.320312 -15.6875 17.769531 -16.804688 16.9375 -17.640625 C 16.113281 -18.484375 15.035156 -18.90625 13.703125 -18.90625 C 12.066406 -18.90625 10.765625 -18.296875 9.796875 -17.078125 C 8.835938 -15.867188 8.359375 -14.234375 8.359375 -12.171875 C 8.359375 -10.109375 8.898438 -8.472656 9.984375 -7.265625 C 11.078125 -6.066406 12.539062 -5.46875 14.375 -5.46875 C 15.945312 -5.46875 17.269531 -5.960938 18.34375 -6.953125 C 19.414062 -7.941406 20.078125 -9.257812 20.328125 -10.90625 L 27.234375 -10.09375 C 27.023438 -7.875 26.351562 -5.941406 25.21875 -4.296875 C 24.09375 -2.660156 22.59375 -1.394531 20.71875 -0.5 C 18.851562 0.394531 16.707031 0.84375 14.28125 0.84375 Z M 14.28125 0.84375 "/></g></g></g><g fill="#ffffff" fill-opacity="1"><g transform="translate(139.457835, 251.608738)"><g><path d="M 20.265625 0.546875 C 18.953125 0.546875 17.816406 0.175781 16.859375 -0.5625 C 15.910156 -1.300781 15.242188 -2.316406 14.859375 -3.609375 L 14.046875 -6.359375 C 13.859375 -6.992188 13.570312 -7.53125 13.1875 -7.96875 C 12.800781 -8.414062 12.28125 -8.640625 11.625 -8.640625 L 9.21875 -8.640625 L 9.21875 0 L 1.765625 0 L 1.765625 -24.34375 L 14.515625 -24.34375 C 17.597656 -24.34375 19.988281 -23.660156 21.6875 -22.296875 C 23.382812 -20.941406 24.234375 -19.019531 24.234375 -16.53125 C 24.234375 -14.957031 23.769531 -13.585938 22.84375 -12.421875 C 21.914062 -11.253906 20.613281 -10.410156 18.9375 -9.890625 L 18.9375 -9.859375 C 19.550781 -9.628906 20.019531 -9.300781 20.34375 -8.875 C 20.675781 -8.445312 20.941406 -7.890625 21.140625 -7.203125 L 21.765625 -5.140625 C 21.878906 -4.796875 22.035156 -4.503906 22.234375 -4.265625 C 22.441406 -4.023438 22.710938 -3.90625 23.046875 -3.90625 C 23.316406 -3.90625 23.582031 -3.972656 23.84375 -4.109375 C 24.101562 -4.242188 24.328125 -4.394531 24.515625 -4.5625 L 25.671875 -1.21875 C 25.035156 -0.675781 24.238281 -0.25 23.28125 0.0625 C 22.332031 0.382812 21.328125 0.546875 20.265625 0.546875 Z M 9.21875 -13.359375 L 13.390625 -13.359375 C 14.460938 -13.359375 15.300781 -13.613281 15.90625 -14.125 C 16.519531 -14.632812 16.828125 -15.332031 16.828125 -16.21875 C 16.828125 -17.125 16.519531 -17.828125 15.90625 -18.328125 C 15.300781 -18.828125 14.460938 -19.078125 13.390625 -19.078125 L 9.21875 -19.078125 Z M 9.21875 -13.359375 "/></g></g></g><g fill="#ffffff" fill-opacity="1"><g transform="translate(165.396863, 251.608738)"><g><path d="M 8.46875 0 L 8.46875 -8.328125 L 0.0625 -24.34375 L 7.8125 -24.34375 L 12.203125 -14.6875 L 12.234375 -14.6875 L 16.25 -24.34375 L 24.109375 -24.34375 L 15.90625 -8.328125 L 15.90625 0 Z M 8.46875 0 "/></g></g></g><g fill="#ffffff" fill-opacity="1"><g transform="translate(189.602089, 251.608738)"><g><path d="M 1.765625 0 L 1.765625 -24.34375 L 14.046875 -24.34375 C 16.035156 -24.34375 17.757812 -23.988281 19.21875 -23.28125 C 20.6875 -22.582031 21.820312 -21.601562 22.625 -20.34375 C 23.425781 -19.09375 23.828125 -17.601562 23.828125 -15.875 C 23.828125 -14.175781 23.421875 -12.691406 22.609375 -11.421875 C 21.796875 -10.148438 20.648438 -9.160156 19.171875 -8.453125 C 17.703125 -7.753906 15.96875 -7.40625 13.96875 -7.40625 L 9.1875 -7.40625 L 9.140625 0 Z M 9.1875 -12.71875 L 12.6875 -12.71875 C 13.84375 -12.71875 14.75 -13 15.40625 -13.5625 C 16.0625 -14.132812 16.390625 -14.90625 16.390625 -15.875 C 16.390625 -16.875 16.0625 -17.65625 15.40625 -18.21875 C 14.75 -18.789062 13.84375 -19.078125 12.6875 -19.078125 L 9.140625 -19.078125 Z M 9.1875 -12.71875 "/></g></g></g><g fill="#ffffff" fill-opacity="1"><g transform="translate(214.113283, 251.608738)"><g><path d="M 7.40625 0 L 7.40625 -18.046875 L 0.609375 -18.046875 L 0.609375 -24.34375 L 21.6875 -24.34375 L 21.6875 -18.046875 L 14.859375 -18.046875 L 14.859375 0 Z M 7.40625 0 "/></g></g></g><g fill="#ffffff" fill-opacity="1"><g transform="translate(236.380726, 251.608738)"><g><path d="M 14.625 0.84375 C 11.875 0.84375 9.46875 0.304688 7.40625 -0.765625 C 5.34375 -1.835938 3.742188 -3.351562 2.609375 -5.3125 C 1.484375 -7.28125 0.921875 -9.566406 0.921875 -12.171875 C 0.921875 -14.796875 1.484375 -17.082031 2.609375 -19.03125 C 3.742188 -20.988281 5.34375 -22.503906 7.40625 -23.578125 C 9.46875 -24.648438 11.875 -25.1875 14.625 -25.1875 C 17.382812 -25.1875 19.789062 -24.648438 21.84375 -23.578125 C 23.894531 -22.503906 25.488281 -20.988281 26.625 -19.03125 C 27.757812 -17.082031 28.328125 -14.796875 28.328125 -12.171875 C 28.328125 -9.566406 27.757812 -7.28125 26.625 -5.3125 C 25.488281 -3.351562 23.894531 -1.835938 21.84375 -0.765625 C 19.789062 0.304688 17.382812 0.84375 14.625 0.84375 Z M 14.625 -5.46875 C 16.519531 -5.46875 18.035156 -6.078125 19.171875 -7.296875 C 20.304688 -8.523438 20.875 -10.148438 20.875 -12.171875 C 20.875 -14.210938 20.304688 -15.84375 19.171875 -17.0625 C 18.035156 -18.289062 16.519531 -18.90625 14.625 -18.90625 C 12.71875 -18.90625 11.195312 -18.289062 10.0625 -17.0625 C 8.925781 -15.84375 8.359375 -14.210938 8.359375 -12.171875 C 8.359375 -10.148438 8.925781 -8.523438 10.0625 -7.296875 C 11.195312 -6.078125 12.71875 -5.46875 14.625 -5.46875 Z M 14.625 -5.46875 "/></g></g></g><g fill="#ffffff" fill-opacity="1"><g transform="translate(137.207618, 280.108736)"><g><path d="M 20.265625 0.546875 C 18.953125 0.546875 17.816406 0.175781 16.859375 -0.5625 C 15.910156 -1.300781 15.242188 -2.316406 14.859375 -3.609375 L 14.046875 -6.359375 C 13.859375 -6.992188 13.570312 -7.53125 13.1875 -7.96875 C 12.800781 -8.414062 12.28125 -8.640625 11.625 -8.640625 L 9.21875 -8.640625 L 9.21875 0 L 1.765625 0 L 1.765625 -24.34375 L 14.515625 -24.34375 C 17.597656 -24.34375 19.988281 -23.660156 21.6875 -22.296875 C 23.382812 -20.941406 24.234375 -19.019531 24.234375 -16.53125 C 24.234375 -14.957031 23.769531 -13.585938 22.84375 -12.421875 C 21.914062 -11.253906 20.613281 -10.410156 18.9375 -9.890625 L 18.9375 -9.859375 C 19.550781 -9.628906 20.019531 -9.300781 20.34375 -8.875 C 20.675781 -8.445312 20.941406 -7.890625 21.140625 -7.203125 L 21.765625 -5.140625 C 21.878906 -4.796875 22.035156 -4.503906 22.234375 -4.265625 C 22.441406 -4.023438 22.710938 -3.90625 23.046875 -3.90625 C 23.316406 -3.90625 23.582031 -3.972656 23.84375 -4.109375 C 24.101562 -4.242188 24.328125 -4.394531 24.515625 -4.5625 L 25.671875 -1.21875 C 25.035156 -0.675781 24.238281 -0.25 23.28125 0.0625 C 22.332031 0.382812 21.328125 0.546875 20.265625 0.546875 Z M 9.21875 -13.359375 L 13.390625 -13.359375 C 14.460938 -13.359375 15.300781 -13.613281 15.90625 -14.125 C 16.519531 -14.632812 16.828125 -15.332031 16.828125 -16.21875 C 16.828125 -17.125 16.519531 -17.828125 15.90625 -18.328125 C 15.300781 -18.828125 14.460938 -19.078125 13.390625 -19.078125 L 9.21875 -19.078125 Z M 9.21875 -13.359375 "/></g></g></g><g fill="#ffffff" fill-opacity="1"><g transform="translate(163.146646, 280.108736)"><g><path d="M 1.765625 0 L 1.765625 -24.34375 L 9.21875 -24.34375 L 9.21875 0 Z M 1.765625 0 "/></g></g></g><g fill="#ffffff" fill-opacity="1"><g transform="translate(174.127389, 280.108736)"><g><path d="M 12.140625 0.84375 C 10.054688 0.84375 8.191406 0.554688 6.546875 -0.015625 C 4.898438 -0.597656 3.570312 -1.484375 2.5625 -2.671875 C 1.550781 -3.859375 0.957031 -5.347656 0.78125 -7.140625 L 7.453125 -8.390625 C 7.628906 -7.148438 8.175781 -6.175781 9.09375 -5.46875 C 10.007812 -4.769531 11.148438 -4.421875 12.515625 -4.421875 C 13.710938 -4.421875 14.664062 -4.644531 15.375 -5.09375 C 16.09375 -5.550781 16.453125 -6.144531 16.453125 -6.875 C 16.453125 -7.457031 16.175781 -7.929688 15.625 -8.296875 C 15.070312 -8.660156 14.179688 -8.957031 12.953125 -9.1875 L 9.828125 -9.6875 C 6.878906 -10.207031 4.722656 -11.054688 3.359375 -12.234375 C 2.003906 -13.421875 1.328125 -15.046875 1.328125 -17.109375 C 1.328125 -18.785156 1.785156 -20.226562 2.703125 -21.4375 C 3.617188 -22.644531 4.867188 -23.570312 6.453125 -24.21875 C 8.046875 -24.863281 9.835938 -25.1875 11.828125 -25.1875 C 13.617188 -25.1875 15.242188 -24.894531 16.703125 -24.3125 C 18.171875 -23.738281 19.375 -22.925781 20.3125 -21.875 C 21.25 -20.820312 21.8125 -19.570312 22 -18.125 L 15.46875 -16.6875 C 15.332031 -17.6875 14.910156 -18.472656 14.203125 -19.046875 C 13.503906 -19.628906 12.65625 -19.921875 11.65625 -19.921875 C 10.726562 -19.921875 9.976562 -19.710938 9.40625 -19.296875 C 8.84375 -18.878906 8.5625 -18.34375 8.5625 -17.6875 C 8.5625 -17.113281 8.820312 -16.65625 9.34375 -16.3125 C 9.863281 -15.976562 10.691406 -15.71875 11.828125 -15.53125 L 15 -15.03125 C 17.988281 -14.59375 20.171875 -13.773438 21.546875 -12.578125 C 22.929688 -11.378906 23.625 -9.703125 23.625 -7.546875 C 23.625 -5.734375 23.128906 -4.203125 22.140625 -2.953125 C 21.160156 -1.710938 19.804688 -0.769531 18.078125 -0.125 C 16.359375 0.519531 14.378906 0.84375 12.140625 0.84375 Z M 12.140625 0.84375 "/></g></g></g><g fill="#ffffff" fill-opacity="1"><g transform="translate(198.162635, 280.108736)"><g><path d="M 1.765625 0 L 1.765625 -24.34375 L 9.21875 -24.34375 L 9.21875 0 Z M 1.765625 0 "/></g></g></g><g fill="#ffffff" fill-opacity="1"><g transform="translate(209.143378, 280.108736)"><g><path d="M 1.765625 0 L 1.765625 -24.34375 L 10.203125 -24.34375 L 18.765625 -8.734375 L 18.84375 -8.734375 L 18.84375 -24.34375 L 25.734375 -24.34375 L 25.734375 0 L 17.3125 0 L 8.734375 -15.578125 L 8.671875 -15.578125 L 8.671875 0 Z M 1.765625 0 "/></g></g></g><g fill="#ffffff" fill-opacity="1"><g transform="translate(236.646229, 280.108736)"><g><path d="M 12.578125 0.71875 C 10.265625 0.71875 8.226562 0.179688 6.46875 -0.890625 C 4.71875 -1.972656 3.351562 -3.476562 2.375 -5.40625 C 1.40625 -7.332031 0.921875 -9.585938 0.921875 -12.171875 C 0.921875 -14.773438 1.460938 -17.050781 2.546875 -19 C 3.640625 -20.957031 5.164062 -22.476562 7.125 -23.5625 C 9.082031 -24.644531 11.351562 -25.1875 13.9375 -25.1875 C 15.820312 -25.1875 17.546875 -24.84375 19.109375 -24.15625 C 20.671875 -23.46875 21.976562 -22.5 23.03125 -21.25 C 24.082031 -20 24.789062 -18.535156 25.15625 -16.859375 L 18.359375 -15.640625 C 18.066406 -16.617188 17.503906 -17.40625 16.671875 -18 C 15.847656 -18.601562 14.90625 -18.90625 13.84375 -18.90625 C 12.207031 -18.90625 10.882812 -18.285156 9.875 -17.046875 C 8.863281 -15.816406 8.359375 -14.191406 8.359375 -12.171875 C 8.359375 -10.785156 8.628906 -9.570312 9.171875 -8.53125 C 9.722656 -7.488281 10.484375 -6.671875 11.453125 -6.078125 C 12.429688 -5.492188 13.566406 -5.203125 14.859375 -5.203125 C 16.398438 -5.203125 17.691406 -5.628906 18.734375 -6.484375 C 19.773438 -7.347656 20.34375 -8.453125 20.4375 -9.796875 L 11.59375 -9.796875 L 11.59375 -14.046875 L 27.609375 -14.046875 L 27.609375 0 L 22.375 0 L 21.625 -4.5625 L 21.59375 -4.5625 C 20.957031 -2.90625 19.820312 -1.609375 18.1875 -0.671875 C 16.550781 0.253906 14.679688 0.71875 12.578125 0.71875 Z M 12.578125 0.71875 "/></g></g></g><g clip-path="url(#2cb7fb31a1)"><path fill="#ffffff" d="M 112.132812 264.730469 L 134.765625 264.730469 L 134.765625 273.808594 L 112.132812 273.808594 Z M 112.132812 264.730469 " fill-opacity="1" fill-rule="nonzero"/></g><path fill="#000000" d="M 201.953125 157.507812 C 200.761719 160.925781 198.003906 162.621094 194.621094 162.976562 C 190.570312 163.402344 186.472656 163.386719 182.394531 163.578125 C 181.523438 163.617188 181.371094 163.148438 181.378906 162.410156 C 181.40625 159.863281 181.390625 157.316406 181.390625 154.765625 C 181.417969 154.765625 181.445312 154.765625 181.472656 154.765625 C 181.472656 152.03125 181.492188 149.292969 181.464844 146.554688 C 181.453125 145.664062 181.894531 145.328125 182.695312 145.375 C 186.796875 145.605469 190.9375 145.5625 194.984375 146.160156 C 200.929688 147.042969 203.859375 152.023438 201.953125 157.507812 Z M 181.386719 119.257812 C 181.503906 119.167969 181.574219 119.066406 181.652344 119.0625 C 185.585938 118.929688 189.535156 118.710938 193.398438 119.75 C 197.023438 120.726562 198.886719 123.070312 198.894531 126.546875 C 198.90625 130.398438 197.117188 132.773438 193.359375 133.757812 C 189.449219 134.78125 185.460938 134.414062 181.386719 134.445312 C 181.386719 129.273438 181.386719 124.25 181.386719 119.257812 Z M 205.96875 140.609375 C 205.074219 140.175781 204.15625 139.785156 203.09375 139.304688 C 203.511719 139.054688 203.75 138.898438 203.992188 138.761719 C 212.460938 134.023438 214.277344 123.207031 207.84375 115.953125 C 204.785156 112.503906 200.953125 110.621094 196.390625 110.285156 C 195.054688 110.1875 194.582031 109.746094 194.636719 108.371094 C 194.742188 105.695312 194.667969 103.015625 194.667969 100.28125 C 192.316406 100.28125 190.140625 100.28125 187.796875 100.28125 C 187.796875 103.4375 187.796875 106.484375 187.796875 109.648438 C 186.53125 109.648438 185.433594 109.65625 184.339844 109.644531 C 181.417969 109.621094 181.78125 109.988281 181.761719 106.996094 C 181.746094 104.757812 181.757812 102.519531 181.757812 100.277344 C 179.378906 100.277344 177.242188 100.277344 174.980469 100.277344 C 174.980469 102.882812 174.910156 105.382812 175.011719 107.875 C 175.066406 109.226562 174.71875 109.714844 173.273438 109.679688 C 169.238281 109.578125 165.195312 109.640625 161.15625 109.648438 C 160.644531 109.648438 160.136719 109.695312 159.632812 109.71875 C 159.632812 112.863281 159.632812 115.859375 159.632812 118.964844 C 161.820312 118.964844 163.882812 118.953125 165.949219 118.96875 C 167.992188 118.984375 168.503906 119.5 168.507812 121.535156 C 168.519531 128.117188 168.53125 134.699219 168.53125 141.285156 C 168.527344 147.726562 168.511719 154.171875 168.507812 160.617188 C 168.503906 163.15625 168.125 163.550781 165.601562 163.5625 C 163.605469 163.570312 161.609375 163.5625 159.640625 163.5625 C 159.640625 166.835938 159.640625 169.832031 159.640625 172.9375 C 164.1875 172.9375 168.609375 172.9375 173.027344 172.9375 C 174.96875 172.941406 174.96875 172.941406 174.972656 174.90625 C 174.972656 177.242188 174.972656 179.582031 174.972656 181.972656 C 177.332031 181.972656 179.46875 181.972656 181.765625 181.972656 C 181.765625 181.359375 181.765625 180.84375 181.765625 180.324219 C 181.765625 178.304688 181.800781 176.285156 181.746094 174.265625 C 181.71875 173.273438 182.050781 172.863281 183.066406 172.925781 C 184.121094 172.988281 185.191406 173.011719 186.238281 172.914062 C 187.484375 172.792969 187.941406 173.167969 187.886719 174.488281 C 187.78125 176.964844 187.855469 179.453125 187.855469 181.945312 C 190.226562 181.945312 192.398438 181.945312 194.742188 181.945312 C 194.742188 178.769531 194.742188 175.714844 194.742188 172.617188 C 198.898438 172.183594 202.796875 171.328125 206.363281 169.429688 C 212.15625 166.351562 215.402344 161.507812 215.355469 154.90625 C 215.308594 148.25 211.957031 143.496094 205.96875 140.609375 " fill-opacity="1" fill-rule="nonzero"/><g clip-path="url(#46f4acc86f)"><path fill="#000000" d="M 187.496094 193.839844 C 158.429688 193.839844 134.78125 170.191406 134.78125 141.125 C 134.78125 112.058594 158.429688 88.410156 187.496094 88.410156 C 216.5625 88.410156 240.207031 112.058594 240.207031 141.125 C 240.207031 170.191406 216.5625 193.839844 187.496094 193.839844 Z M 231.890625 96.730469 C 220.03125 84.875 204.265625 78.34375 187.496094 78.34375 C 170.726562 78.34375 154.957031 84.875 143.101562 96.730469 C 131.242188 108.589844 124.710938 124.355469 124.710938 141.125 C 124.710938 157.894531 131.242188 173.660156 143.101562 185.519531 C 154.957031 197.378906 170.726562 203.910156 187.496094 203.910156 C 204.265625 203.910156 220.03125 197.378906 231.890625 185.519531 C 243.746094 173.660156 250.277344 157.894531 250.277344 141.125 C 250.277344 124.355469 243.746094 108.589844 231.890625 96.730469 " fill-opacity="1" fill-rule="nonzero"/></g></svg>