<svg xmlns="http://www.w3.org/2000/svg" xmlns:xlink="http://www.w3.org/1999/xlink" width="1080" zoomAndPan="magnify" viewBox="0 0 810 809.999993" height="1080" preserveAspectRatio="xMidYMid meet" version="1.0"><defs><clipPath id="ab85074773"><path d="M 14 49.550781 L 794 49.550781 L 794 772 L 14 772 Z M 14 49.550781 " clip-rule="nonzero"/></clipPath></defs><g clip-path="url(#ab85074773)"><path fill="#eeba2b" d="M 60.070312 333.960938 L 60.070312 140.84375 C 60.070312 115.945312 80.527344 95.515625 105.421875 95.515625 L 247.519531 95.515625 C 296 95.515625 288.511719 49.65625 250.675781 49.65625 L 105.421875 49.65625 C 55.125 49.65625 14.128906 90.652344 14.128906 140.949219 L 14.128906 535.714844 C 14.128906 585.988281 55.125 627.007812 105.421875 627.007812 L 241.183594 627.007812 L 306.320312 724.929688 C 317.5 741.800781 331.214844 767.738281 353.144531 770.789062 C 376.863281 774.050781 398.253906 748.863281 413.414062 733.671875 L 725.554688 430.734375 L 744.648438 534.351562 C 747.054688 547.613281 759.808594 556.492188 773.097656 554.058594 C 786.386719 551.625 795.238281 538.871094 792.804688 525.605469 L 766.253906 381.183594 C 764.96875 369.683594 755.71875 360.40625 743.792969 359.46875 L 593.589844 347.222656 C 580.085938 346.179688 568.269531 356.289062 567.226562 369.792969 C 566.183594 383.296875 576.289062 395.089844 589.792969 396.15625 L 687.183594 404.046875 L 381.058594 701.210938 C 377.371094 704.902344 366.941406 715.863281 359.667969 721.988281 C 354.398438 715.035156 347.339844 703.535156 344.691406 699.527344 L 265.941406 581.148438 L 105.609375 581.148438 C 80.742188 581.148438 60.285156 560.691406 60.285156 535.820312 L 60.285156 334.171875 Z M 60.070312 333.960938 " fill-opacity="1" fill-rule="evenodd"/></g><path fill="#011f26" d="M 166.441406 361.367188 C 179.089844 361.367188 189.414062 371.691406 189.414062 384.339844 L 189.414062 466.566406 C 189.414062 479.210938 179.089844 489.535156 166.441406 489.535156 C 153.792969 489.535156 143.472656 479.210938 143.472656 466.566406 L 143.472656 384.339844 C 143.472656 371.691406 153.792969 361.367188 166.441406 361.367188 Z M 166.441406 361.367188 " fill-opacity="1" fill-rule="evenodd"/><path fill="#011f26" d="M 274.605469 275.667969 C 287.253906 275.667969 297.578125 285.988281 297.578125 298.636719 L 297.578125 466.566406 C 297.578125 479.210938 287.253906 489.535156 274.605469 489.535156 C 261.957031 489.535156 251.609375 479.210938 251.609375 466.566406 L 251.609375 298.636719 C 251.609375 285.988281 261.957031 275.667969 274.605469 275.667969 Z M 274.605469 275.667969 " fill-opacity="1" fill-rule="evenodd"/><path fill="#011f26" d="M 382.636719 184.695312 C 395.285156 184.695312 405.632812 195.019531 405.632812 207.664062 L 405.632812 466.566406 C 405.632812 479.210938 395.285156 489.535156 382.636719 489.535156 C 369.988281 489.535156 359.667969 479.210938 359.667969 466.566406 L 359.667969 207.664062 C 359.667969 195.019531 369.988281 184.695312 382.636719 184.695312 Z M 382.636719 184.695312 " fill-opacity="1" fill-rule="evenodd"/><path fill="#011f26" d="M 490.800781 120.597656 C 503.449219 120.597656 513.773438 130.921875 513.773438 143.570312 L 513.773438 466.566406 C 513.773438 479.210938 503.449219 489.535156 490.800781 489.535156 C 478.152344 489.535156 467.832031 479.210938 467.832031 466.566406 L 467.832031 143.570312 C 467.832031 130.921875 478.152344 120.597656 490.800781 120.597656 Z M 490.800781 120.597656 " fill-opacity="1" fill-rule="evenodd"/></svg>